<svg width="50" height="50" viewBox="0 0 50 50" fill="none" xmlns="http://www.w3.org/2000/svg">
<path fill-rule="evenodd" clip-rule="evenodd" d="M49.9965 1.50027C49.9965 0.672442 49.3244 0.000274658 48.4966 0.000274658H1.49989C0.672123 0.000274658 0 0.672442 0 1.50027V48.5C0 49.3278 0.672123 50 1.49989 50H48.4966C49.3244 50 49.9965 49.3278 49.9965 48.5V1.50027Z" fill="#144E8C"/>
<path fill-rule="evenodd" clip-rule="evenodd" d="M49.9965 0.000274658H0L4.76805e-08 50H49.9965V0.000274658Z" fill="#1B72BE"/>
<path fill-rule="evenodd" clip-rule="evenodd" d="M23.1159 50H19.6291L10.6228 31.8922L28.1736 0.000274658H30.9979L12.6242 31.8265L23.1158 50H23.1159ZM32.5613 50H23.8659L13.6198 32.2522H50L49.9965 35.5659L32.5613 50ZM23.9187 0.000274658H20.9985L0 36.3731V41.4313L23.9187 0.000274658ZM28.9911 31.598H19.1019C17.9476 31.598 16.8742 30.9941 16.297 29.9946C16.0135 29.5034 15.8642 28.9462 15.8642 28.379C15.8642 27.8119 16.0135 27.2547 16.297 26.7635L21.2485 18.1868L28.9911 31.598ZM49.9965 31.598H29.741L21.6234 17.5371L31.7478 0.000274658L35.4161 0.00258461L30.088 18.1295L32.5613 23.2103L49.9965 30.0671V31.598V31.598Z" fill="#074F7F"/>
<path fill-rule="evenodd" clip-rule="evenodd" d="M49.9964 49.9995H24.6158L14.7449 32.9016H49.9964V49.9995ZM22.3659 49.9995H3.05176e-05V37.672L21.7484 0H30.2478L11.8742 31.8264L22.3659 49.9995ZM27.8682 30.9519H19.2747C18.3154 30.9519 17.429 30.4485 16.9494 29.6174C16.7137 29.2092 16.5896 28.7462 16.5896 28.2749C16.5896 27.8036 16.7137 27.3405 16.9494 26.9324C18.8583 23.6258 21.2485 19.4857 21.2485 19.4857L27.8682 30.9519V30.9519ZM49.9964 30.9519H30.119L22.3734 17.5369L32.4977 0H49.9964V30.9519Z" fill="url(#paint0_radial_1_230)"/>
<defs>
<radialGradient id="paint0_radial_1_230" cx="0" cy="0" r="1" gradientUnits="userSpaceOnUse" gradientTransform="translate(38.214 -9.39688) scale(59.3926 59.3964)">
<stop stop-color="#6BE1FB"/>
<stop offset="1" stop-color="#38BDFA"/>
</radialGradient>
</defs>
</svg>
