<svg width="50" height="50" viewBox="0 0 50 50" fill="none" xmlns="http://www.w3.org/2000/svg">
<g clip-path="url(#clip0_1_234)">
<path fill-rule="evenodd" clip-rule="evenodd" d="M10.3852 5.00477C7.53223 5.00477 5.42119 7.50184 5.51572 10.2098C5.60645 12.8115 5.48857 16.181 4.64033 18.9289C3.78906 21.6845 2.35039 23.4306 0 23.6548V26.1852C2.35039 26.4098 3.78906 28.1552 4.64023 30.9111C5.48857 33.659 5.60635 37.0285 5.51562 39.6302C5.42109 42.3378 7.53213 44.8352 10.3855 44.8352H39.6187C42.4716 44.8352 44.5822 42.3382 44.4877 39.6302C44.397 37.0285 44.5148 33.659 45.3631 30.9111C46.2144 28.1552 47.6495 26.4092 50 26.1852V23.6548C47.6496 23.4302 46.2145 21.6848 45.3631 18.9289C44.5147 16.1814 44.397 12.8115 44.4877 10.2098C44.5822 7.50223 42.4716 5.00477 39.6187 5.00477H10.3848H10.3852ZM33.8983 29.523C33.8983 33.2518 31.117 35.5133 26.5013 35.5133H18.644C18.4193 35.5133 18.2037 35.424 18.0448 35.265C17.8859 35.1061 17.7966 34.8906 17.7966 34.6658V15.1743C17.7966 14.9495 17.8859 14.734 18.0448 14.5751C18.2037 14.4161 18.4193 14.3268 18.644 14.3268H26.4565C30.3053 14.3268 32.8312 16.4116 32.8312 19.6124C32.8312 21.859 31.1319 23.8702 28.9672 24.2225V24.3397C31.9141 24.663 33.8983 26.704 33.8983 29.523V29.523ZM25.6445 17.0133H21.1645V23.3414H24.9378C27.8548 23.3414 29.4632 22.1668 29.4632 20.0673C29.4629 18.0997 28.0801 17.0133 25.6445 17.0133ZM21.1645 25.8522V32.826H25.8094C28.8465 32.826 30.4552 31.6073 30.4552 29.3171C30.4552 27.0268 28.8014 25.8518 25.6141 25.8518H21.1645V25.8522Z" fill="#7952B3"/>
</g>
<defs>
<clipPath id="clip0_1_234">
<rect width="50" height="39.84" fill="white" transform="translate(0 5)"/>
</clipPath>
</defs>
</svg>
