<svg xmlns="http://www.w3.org/2000/svg" width="50" height="50" fill="none" viewBox="0 0 50 50"><path fill="#00D2B8" d="M13.7762 13.6125L10.5445 10.3809L10.5582 33.7402L10.5969 34.832C10.6129 35.3457 10.7082 35.9254 10.8672 36.5262L36.4733 45.5555L42.8741 42.7195L42.8764 42.7117L13.7762 13.6125Z"/><path fill="#55DDCA" d="M10.8672 36.5262L10.8687 36.5277C10.8672 36.5172 10.8617 36.5055 10.8617 36.4945C10.8617 36.5055 10.8633 36.5156 10.8672 36.5262V36.5262ZM42.8742 42.7195L36.4734 45.5555L10.8687 36.5277C11.3578 38.4043 12.4406 40.5137 13.6059 41.6672L21.9621 49.9758L40.5422 50L42.8766 42.7117L42.8742 42.7195V42.7195Z"/><path fill="#0081C6" d="M0.592579 25.4133C-0.234765 26.2965 0.176173 28.1184 1.50821 29.4605L7.25392 35.2539L10.8672 36.5262C10.7082 35.9254 10.6129 35.3457 10.5969 34.832L10.5582 33.7402L10.5445 10.3809L0.592579 25.4133V25.4133Z"/><path fill="#0079B3" d="M36.6837 10.6809C36.0829 10.5273 35.5068 10.4324 34.9845 10.416L33.8306 10.3762L10.5445 10.3793L42.8798 42.7117H42.8826L45.7224 36.3047L36.6837 10.6809Z"/><path fill="#00A4E4" d="M36.6543 10.6746C36.6668 10.6773 36.6766 10.6809 36.6848 10.682L36.6836 10.6809C36.6766 10.6773 36.6668 10.6773 36.6543 10.6746ZM41.8199 13.4242C40.6465 12.241 38.5648 11.1656 36.6848 10.682L45.7222 36.3047L42.8824 42.7117H42.8797L49.8195 40.4953L49.8343 21.4687L41.8199 13.4242V13.4242Z"/><path fill="#00D2B8" d="M35.4174 7.08944L29.6257 1.34023C28.2862 0.0132853 26.4636 -0.399604 25.5827 0.425394L10.5445 10.3793L33.8303 10.3761L34.9842 10.416C35.5065 10.4324 36.0827 10.5273 36.6834 10.6808L35.4174 7.08944V7.08944Z"/></svg>