<svg xmlns="http://www.w3.org/2000/svg" width="50" height="50" fill="none" viewBox="0 0 50 50"><path fill="#364548" fill-rule="evenodd" d="M7.54241 37.9852V34.7894C7.54241 34.3695 7.80491 34.0322 8.23967 34.0322H8.35999C8.79456 34.0322 9.05589 34.3699 9.05589 34.7894V41.5174C9.05589 43.158 8.24534 44.4635 6.83284 45.2951C6.18579 45.6785 5.44721 45.8799 4.69514 45.8781H4.39494C2.75392 45.8781 1.45021 45.067 0.617199 43.6555C0.233311 43.0085 0.0319032 42.2696 0.0343855 41.5174V41.2176C0.0343855 39.5764 0.845324 38.2717 2.25665 37.4385C2.90358 37.0543 3.64257 36.8529 4.39494 36.8555H4.69514C5.80568 36.8555 6.74787 37.2859 7.54241 37.9852V37.9852ZM1.54767 41.3672C1.54767 42.5523 2.12208 43.4434 3.16056 44.0117C3.58049 44.2414 4.03635 44.3648 4.51545 44.3648C5.67873 44.3648 6.54162 43.816 7.13674 42.8303C7.4135 42.3717 7.54241 41.8699 7.54241 41.3365C7.54241 40.3092 7.05608 39.5074 6.22815 38.9119C5.72619 38.551 5.16115 38.3699 4.54494 38.3699C3.27697 38.3699 2.36447 39.0105 1.81681 40.1484C1.63204 40.5332 1.54767 40.9416 1.54767 41.3672V41.3672ZM14.3063 36.8555H14.5161C16.2696 36.8555 17.6032 37.7061 18.4483 39.2367C18.7862 39.849 18.967 40.5174 18.967 41.2176V41.5174C18.967 43.158 18.1581 44.4652 16.7434 45.2953C16.0885 45.6795 15.3651 45.8781 14.6061 45.8781H14.3063C12.6653 45.8781 11.3612 45.067 10.5285 43.6555C10.1445 43.0086 9.94286 42.2697 9.94514 41.5174V41.2176C9.94514 39.5762 10.7594 38.2758 12.1672 37.4389C12.8217 37.05 13.5457 36.8555 14.3063 36.8555ZM11.4586 41.3672C11.4586 42.5176 12.0231 43.3639 12.9948 43.959C13.451 44.2383 13.9536 44.3648 14.4866 44.3648C15.6233 44.3648 16.4635 43.7885 17.0483 42.8291C17.3272 42.3717 17.4534 41.8691 17.4534 41.3365C17.4534 40.2668 16.9381 39.4496 16.0573 38.8574C15.5746 38.5326 15.0373 38.3699 14.4561 38.3699C13.1881 38.3699 12.2756 39.0105 11.7282 40.1484C11.543 40.5332 11.4586 40.9416 11.4586 41.3672V41.3672ZM25.2586 38.4908C25.0301 38.3838 24.6024 38.3482 24.3555 38.3389C23.0911 38.2912 22.1762 39.0033 21.6395 40.1187C21.4542 40.5035 21.3696 40.9107 21.3696 41.3365C21.3696 42.6328 22.0502 43.5404 23.2073 44.0937C23.6299 44.2957 24.1756 44.334 24.6376 44.334C25.0438 44.334 25.618 44.0852 25.9786 43.9139L26.0411 43.8842H26.321L26.3518 43.8904C26.696 43.9621 26.9557 44.1803 26.9557 44.5506V44.7004C26.9557 45.6219 25.2717 45.8328 24.6292 45.8777C22.3616 46.0346 20.6657 44.7893 20.0192 42.6264C19.9069 42.2508 19.8563 41.8777 19.8563 41.4863V41.1869C19.8563 39.5457 20.6708 38.2457 22.0784 37.4096C22.7329 37.0209 23.4567 36.8256 24.217 36.8256H24.517C25.3237 36.8256 26.0667 37.0547 26.7327 37.5096L26.7874 37.5475L26.8219 37.6045C26.8938 37.7236 26.9557 37.8615 26.9557 38.0033V38.1531C26.9557 38.5394 26.6667 38.7473 26.3178 38.8144L26.2889 38.8195H26.1995C25.9737 38.8195 25.4602 38.5857 25.2586 38.4908V38.4908ZM30.1676 39.5156C30.7555 38.927 31.3454 38.3395 31.9421 37.7605C32.1083 37.599 32.7378 36.9154 32.9856 36.9154H33.2567L33.2876 36.9219C33.6329 36.9936 33.8915 37.2121 33.8915 37.5832V37.7328C33.8915 37.9859 33.595 38.2801 33.4315 38.4533C33.0839 38.8219 32.7178 39.1783 32.362 39.5393L30.5335 41.3955C31.3208 42.1846 32.1073 42.9742 32.8882 43.7693C33.1047 43.9888 33.3196 44.2099 33.5329 44.4326C33.6081 44.5117 33.719 44.6102 33.7821 44.7197C33.8499 44.8225 33.8915 44.9383 33.8915 45.0619V45.2182L33.8827 45.2543C33.7977 45.5996 33.5786 45.8781 33.196 45.8781H33.0755C32.8251 45.8781 32.5423 45.5949 32.3708 45.433C32.0173 45.0998 31.676 44.7494 31.3296 44.409L30.1676 43.2684V45.0914C30.1676 45.5113 29.9048 45.8488 29.4706 45.8488H29.3514C28.9167 45.8488 28.6542 45.5113 28.6542 45.0914V34.8187C28.6542 34.3988 28.9169 34.0629 29.3514 34.0629H29.4706C29.9048 34.0629 30.1676 34.3988 30.1676 34.8187V39.5156V39.5156ZM49.0304 36.9154H49.1808C49.6347 36.9154 49.9376 37.2213 49.9376 37.6727C49.9376 38.2992 49.3386 38.4596 48.8204 38.4596C48.1407 38.4596 47.4917 38.8711 47.0231 39.3326C46.439 39.9086 46.1833 40.6463 46.1833 41.4572V45.1211C46.1833 45.541 45.921 45.8781 45.486 45.8781H45.3665C44.9315 45.8781 44.6694 45.5412 44.6694 45.1211V41.2469C44.6694 39.7592 45.3936 38.5447 46.6011 37.693C47.322 37.1842 48.1478 36.9156 49.0304 36.9156V36.9154ZM38.2737 44.1764C38.8245 44.3687 39.4524 44.3412 40.0175 44.2428C40.3065 44.1199 41.0456 43.7975 41.3175 43.8447L41.3598 43.852L41.3989 43.8711C41.5649 43.9516 41.7233 44.0654 41.8081 44.2344C42.0061 44.6303 41.911 45.0283 41.522 45.2531L41.3925 45.3279C39.9569 46.1564 38.43 46.0416 36.9989 45.2678C36.3147 44.8978 35.7913 44.3488 35.4052 43.6795L35.3149 43.523C34.3932 41.9269 34.5176 40.248 35.5571 38.7303C35.9159 38.2057 36.3848 37.8004 36.9331 37.4834L37.1405 37.3637C38.4925 36.5832 39.9415 36.6367 41.33 37.3217C42.0766 37.69 42.6815 38.2391 43.0983 38.9611L43.1733 39.0912C43.4761 39.6158 43.0839 40.0728 42.679 40.3853C42.2091 40.7478 41.7347 41.1842 41.2843 41.5728C40.28 42.4398 39.2772 43.3088 38.2737 44.1764V44.1764ZM36.9739 43.2635C38.097 42.3006 39.2204 41.3367 40.3405 40.3697C40.7233 40.0396 41.143 39.6971 41.5227 39.35C41.218 38.966 40.7091 38.6893 40.2766 38.5242C39.4036 38.1916 38.5429 38.3033 37.7423 38.7654C36.6944 39.3705 36.2481 40.334 36.2872 41.533C36.3028 42.0053 36.4298 42.4603 36.6803 42.8621C36.7686 43.0037 36.8673 43.1367 36.9739 43.2635ZM28.8063 12.9359H33.2723V17.5014H35.5303C36.5733 17.5014 37.6458 17.3156 38.6333 16.9811C39.1186 16.8164 39.6632 16.5875 40.1419 16.2994C39.5114 15.4764 39.1895 14.4371 39.095 13.4127C38.9661 12.0191 39.2473 10.2055 40.1903 9.11484L40.6598 8.57187L41.2192 9.02168C42.6276 10.1531 43.8122 11.7344 44.021 13.5369C45.7169 13.0381 47.7081 13.1561 49.2028 14.0187L49.8161 14.3727L49.4935 15.0027C48.2292 17.4699 45.586 18.2344 43.002 18.099C39.1354 27.7297 30.7173 32.2891 20.5104 32.2891C15.237 32.2891 10.3991 30.3178 7.64397 25.6393L7.59885 25.5631L7.19748 24.7463C6.26623 22.6869 5.95686 20.4309 6.16662 18.1766L6.22971 17.5014H10.0489V12.9359H14.5147V8.46992H23.4469V4.00391H28.8063V12.9359Z" clip-rule="evenodd"/><path fill="#22A0C8" fill-rule="evenodd" d="M43.2754 14.625C43.5749 12.2977 41.8333 10.4697 40.7532 9.60176C39.5084 11.0408 39.3151 14.8123 41.2678 16.4002C40.178 17.3682 37.8817 18.2455 35.5303 18.2455H6.90823C6.67971 20.7 7.11057 22.9604 8.09475 24.8949L8.42034 25.4906C8.62649 25.8403 8.85177 26.1783 9.09514 26.5031C10.2719 26.5787 11.3569 26.6047 12.3494 26.5828H12.3498C14.3004 26.5398 15.892 26.3094 17.0983 25.8914C17.1836 25.8649 17.2758 25.8726 17.3555 25.9128C17.4352 25.9531 17.4962 26.0228 17.5254 26.1072C17.5547 26.1916 17.5499 26.284 17.5123 26.365C17.4746 26.4459 17.4069 26.5091 17.3235 26.541C17.1629 26.5969 16.9957 26.6488 16.8231 26.6982H16.8225C15.8727 26.9695 14.8541 27.152 13.5401 27.233C13.6182 27.2344 13.4588 27.2447 13.4584 27.2447C13.4137 27.2477 13.3575 27.2541 13.3125 27.2564C12.7953 27.2855 12.2371 27.2916 11.6664 27.2916C11.0422 27.2916 10.4276 27.2799 9.74026 27.2447L9.72268 27.2564C12.1074 29.9369 15.8364 31.5445 20.5106 31.5445C30.4028 31.5445 38.7934 27.1594 42.509 17.3147C45.145 17.5852 47.6784 16.9129 48.8307 14.6633C46.9952 13.6041 44.6346 13.9418 43.2754 14.625" clip-rule="evenodd"/><path fill="#37B1D9" fill-rule="evenodd" d="M43.2754 14.625C43.5748 12.2977 41.8332 10.4697 40.7532 9.60176C39.5084 11.0408 39.3151 14.8123 41.2678 16.4002C40.178 17.3682 37.8817 18.2455 35.5303 18.2455H8.60311C8.48631 22.0045 9.88123 24.8579 12.3492 26.5829H12.3498C14.3004 26.5399 15.892 26.3094 17.0982 25.8915C17.1835 25.8649 17.2758 25.8726 17.3555 25.9129C17.4352 25.9532 17.4961 26.0229 17.5254 26.1072C17.5546 26.1916 17.5499 26.2841 17.5122 26.365C17.4745 26.446 17.4068 26.5091 17.3234 26.5411C17.1629 26.5969 16.9957 26.6489 16.823 26.6983H16.8225C15.8726 26.9696 14.7666 27.1755 13.4525 27.2565C13.4521 27.2565 13.4207 27.2262 13.4203 27.2262C16.7869 28.9532 21.6684 28.9469 27.2651 26.7971C33.5405 24.3862 39.3801 19.7932 43.4545 14.5399C43.3932 14.5676 43.3334 14.5959 43.2754 14.625" clip-rule="evenodd"/><path fill="#1B81A5" fill-rule="evenodd" d="M6.96191 21.2277C7.13965 22.5426 7.52442 23.7736 8.09473 24.8949L8.42032 25.4906C8.62644 25.8403 8.85172 26.1783 9.09513 26.5031C10.2721 26.5787 11.357 26.6047 12.3498 26.5828C14.3004 26.5398 15.892 26.3094 17.0983 25.8914C17.1836 25.8649 17.2758 25.8726 17.3555 25.9128C17.4352 25.9531 17.4962 26.0228 17.5254 26.1072C17.5547 26.1916 17.5499 26.284 17.5123 26.365C17.4746 26.4459 17.4069 26.5091 17.3235 26.541C17.1629 26.5969 16.9957 26.6488 16.8231 26.6982H16.8225C15.8727 26.9695 14.7725 27.1637 13.4584 27.2449C13.4133 27.2477 13.3346 27.2482 13.2891 27.2508C12.7723 27.2797 12.2197 27.2975 11.6488 27.2975C11.0248 27.2975 10.3865 27.2856 9.69962 27.2506C12.0844 29.9311 15.8364 31.5445 20.5106 31.5445C28.9794 31.5445 36.3474 28.3301 40.6238 21.2277H6.96191Z" clip-rule="evenodd"/><path fill="#1D91B4" fill-rule="evenodd" d="M8.86072 21.2277C9.36697 23.5363 10.5836 25.3486 12.3498 26.5828C14.3004 26.5398 15.892 26.3094 17.0982 25.8914C17.1835 25.8649 17.2757 25.8726 17.3555 25.9128C17.4352 25.9531 17.4961 26.0228 17.5253 26.1072C17.5546 26.1916 17.5499 26.284 17.5122 26.365C17.4745 26.4459 17.4068 26.5091 17.3234 26.541C17.1629 26.5969 16.9957 26.6488 16.823 26.6982H16.8224C15.8726 26.9695 14.7492 27.1637 13.4349 27.2449C16.8013 28.9715 21.6687 28.9467 27.265 26.7971C30.6506 25.4963 33.909 23.56 36.8322 21.2277H8.86072Z" clip-rule="evenodd"/><path fill="#23A3C2" fill-rule="evenodd" d="M10.793 13.6803H14.6637V17.551H10.793V13.6803ZM11.1154 14.0029H11.4209V17.2285H11.1154V14.0029ZM11.6896 14.0029H12.0074V17.2285H11.6898V14.0029H11.6896ZM12.276 14.0029H12.5938V17.2285H12.276V14.0029ZM12.8627 14.0029H13.1803V17.2285H12.8627V14.0029ZM13.4492 14.0029H13.7668V17.2285H13.4492V14.0029ZM14.0355 14.0029H14.3412V17.2285H14.0355V14.0029ZM15.259 9.21426H19.1299V13.0848H15.2588V9.21426H15.259ZM15.5816 9.53692H15.8869V12.7623H15.5816V9.53692ZM16.1559 9.53692H16.4734V12.7623H16.1561V9.53692H16.1559ZM16.7422 9.53692H17.0598V12.7623H16.7422V9.53692ZM17.3287 9.53692H17.6463V12.7623H17.3287V9.53692ZM17.9152 9.53692H18.233V12.7623H17.9152V9.53692ZM18.5016 9.53692H18.8074V12.7623H18.5016V9.53692Z" clip-rule="evenodd"/><path fill="#34BBDE" fill-rule="evenodd" d="M15.259 13.6803H19.1299V17.551H15.2588V13.6803H15.259ZM15.5816 14.0029H15.8869V17.2285H15.5816V14.0029ZM16.1559 14.0029H16.4734V17.2285H16.1561V14.0029H16.1559ZM16.7422 14.0029H17.0598V17.2285H16.7422V14.0029ZM17.3287 14.0029H17.6463V17.2285H17.3287V14.0029ZM17.9152 14.0029H18.233V17.2285H17.9152V14.0029ZM18.5016 14.0029H18.8074V17.2285H18.5016V14.0029Z" clip-rule="evenodd"/><path fill="#23A3C2" fill-rule="evenodd" d="M19.7252 13.6803H23.5959V17.551H19.7252V13.6803ZM20.0477 14.0029H20.3529V17.2285H20.0477V14.0029ZM20.6219 14.0029H20.9395V17.2285H20.6219V14.0029ZM21.2084 14.0029H21.526V17.2285H21.2084V14.0029ZM21.7949 14.0029H22.1125V17.2285H21.7949V14.0029ZM22.3812 14.0029H22.6992V17.2285H22.3812V14.0029ZM22.9678 14.0029H23.2732V17.2285H22.9678V14.0029V14.0029Z" clip-rule="evenodd"/><path fill="#34BBDE" fill-rule="evenodd" d="M19.7252 9.21426H23.5959V13.0848H19.7252V9.21426ZM20.0477 9.53692H20.353V12.7623H20.0477V9.53692ZM20.6219 9.53692H20.9395V12.7623H20.6219V9.53692ZM21.2084 9.53692H21.526V12.7623H21.2084V9.53692ZM21.7949 9.53692H22.1125V12.7623H21.7949V9.53692ZM22.3813 9.53692H22.6992V12.7623H22.3813V9.53692ZM22.9678 9.53692H23.2733V12.7623H22.9678V9.53692V9.53692ZM24.1912 13.6803H28.0619V17.551H24.1912V13.6803ZM24.5139 14.0029H24.8192V17.2285H24.5139V14.0029ZM25.0881 14.0029H25.4057V17.2285H25.0881V14.0029ZM25.6744 14.0029H25.992V17.2285H25.6744V14.0029ZM26.261 14.0029H26.5787V17.2285H26.261V14.0029ZM26.8475 14.0029H27.1653V17.2285H26.8475V14.0029ZM27.434 14.0029H27.7395V17.2285H27.434V14.0029Z" clip-rule="evenodd"/><path fill="#23A3C2" fill-rule="evenodd" d="M24.1912 9.21426H28.0619V13.0848H24.1912V9.21426ZM24.5139 9.53692H24.8192V12.7623H24.5139V9.53692ZM25.0881 9.53692H25.4057V12.7623H25.0881V9.53692ZM25.6744 9.53692H25.992V12.7623H25.6744V9.53692ZM26.261 9.53692H26.5787V12.7623H26.261V9.53692ZM26.8475 9.53692H27.1653V12.7623H26.8475V9.53692ZM27.434 9.53692H27.7395V12.7623H27.434V9.53692Z" clip-rule="evenodd"/><path fill="#34BBDE" fill-rule="evenodd" d="M24.1912 4.74805H28.0619V8.61914H24.1912V4.74805ZM24.5139 5.07051H24.8192V8.29629H24.5139V5.07031V5.07051ZM25.0881 5.07051H25.4057V8.29629H25.0881V5.07031V5.07051ZM25.6744 5.07051H25.992V8.29629H25.6744V5.07031V5.07051ZM26.261 5.07051H26.5787V8.29629H26.261V5.07031V5.07051ZM26.8475 5.07051H27.1653V8.29629H26.8475V5.07031V5.07051ZM27.434 5.07051H27.7395V8.29629H27.434V5.07031V5.07051Z" clip-rule="evenodd"/><path fill="#23A3C2" fill-rule="evenodd" d="M28.6572 13.6803H32.5279V17.551H28.6572V13.6803ZM28.9795 14.0029H29.2851V17.2285H28.9797V14.0029H28.9795ZM29.5537 14.0029H29.8715V17.2285H29.5539V14.0029H29.5537ZM30.1404 14.0029H30.4582V17.2285H30.1404V14.0029ZM30.7267 14.0029H31.0445V17.2285H30.7267V14.0029ZM31.3134 14.0029H31.631V17.2285H31.3134V14.0029ZM31.8998 14.0029H32.2052V17.2285H31.8998V14.0029Z" clip-rule="evenodd"/><path fill="#D3ECEC" fill-rule="evenodd" d="M18.8875 23.8266C19.029 23.8247 19.1694 23.8509 19.3006 23.9037C19.4319 23.9566 19.5513 24.0349 19.652 24.1343C19.7527 24.2337 19.8326 24.3521 19.8872 24.4826C19.9417 24.6131 19.9698 24.7532 19.9698 24.8946C19.9697 25.0361 19.9416 25.1761 19.887 25.3066C19.8324 25.4371 19.7524 25.5555 19.6517 25.6548C19.551 25.7542 19.4315 25.8325 19.3003 25.8853C19.169 25.9381 19.0286 25.9642 18.8871 25.9623C18.6064 25.9584 18.3385 25.8442 18.1414 25.6443C17.9442 25.4444 17.8337 25.175 17.8338 24.8942C17.8339 24.6135 17.9444 24.3441 18.1417 24.1442C18.3389 23.9444 18.6068 23.8303 18.8875 23.8266Z" clip-rule="evenodd"/><path fill="#364548" fill-rule="evenodd" d="M18.8875 24.1295C18.9852 24.1295 19.0783 24.1478 19.1643 24.1812C19.105 24.2156 19.0586 24.2686 19.0325 24.332C19.0063 24.3954 19.0017 24.4656 19.0195 24.5319C19.0372 24.5981 19.0763 24.6567 19.1306 24.6985C19.1849 24.7403 19.2515 24.7631 19.3201 24.7632C19.4383 24.7632 19.5408 24.6978 19.5939 24.6009C19.6568 24.7525 19.6693 24.9202 19.6296 25.0794C19.5898 25.2385 19.5 25.3807 19.3732 25.4849C19.2465 25.589 19.0896 25.6496 18.9257 25.6578C18.7618 25.6659 18.5997 25.6212 18.4633 25.5301C18.3268 25.439 18.2232 25.3065 18.1679 25.152C18.1126 24.9976 18.1084 24.8294 18.1559 24.6724C18.2035 24.5154 18.3003 24.3779 18.432 24.2801C18.5637 24.1823 18.7234 24.1295 18.8875 24.1295V24.1295ZM0 21.6137H49.6732C48.5918 21.3394 46.2514 20.9687 46.6373 19.5512C44.6705 21.8269 39.9277 21.1478 38.7307 20.0258C37.3979 21.959 29.6381 21.224 29.0969 19.718C27.4258 21.6791 22.2479 21.6791 20.5768 19.718C20.0352 21.224 12.2756 21.959 10.9426 20.0256C9.7457 21.1478 5.00312 21.8269 3.03633 19.5514C3.42227 20.9687 1.08184 21.3394 0 21.6139" clip-rule="evenodd"/><path fill="#BDD9D7" fill-rule="evenodd" d="M21.726 31.5215C19.0814 30.2666 17.6301 28.5605 16.8225 26.6984C15.84 26.9787 14.6594 27.158 13.2873 27.235C12.7705 27.2639 12.2268 27.2787 11.6565 27.2787C10.9987 27.2787 10.3055 27.2592 9.57776 27.2207C12.0029 29.6445 14.9863 31.5105 20.5105 31.5445C20.9184 31.5445 21.323 31.5367 21.726 31.5215" clip-rule="evenodd"/><path fill="#D3ECEC" fill-rule="evenodd" d="M17.8047 28.4168C17.4389 27.9201 17.084 27.2959 16.8231 26.698C15.8406 26.9787 14.6596 27.158 13.2873 27.2352C14.2299 27.7467 15.5777 28.2207 17.8049 28.4168" clip-rule="evenodd"/></svg>