<svg width="50" height="50" viewBox="0 0 50 50" fill="none" xmlns="http://www.w3.org/2000/svg">
<g clip-path="url(#clip0_2_244)">
<path d="M0.325391 29.2965V23.732H7.27305V23.4065H0.325391V18.33H7.7123V18.0046H0V29.6219H7.77734V29.2965H0.325488H0.325391ZM14.0417 21.2587L11.1618 25.0498L8.34688 21.2588H7.92383L10.9665 25.294L7.63086 29.6218H8.02139L11.1616 25.5378L14.3182 29.6218H14.7249L11.3731 25.2938L14.432 21.2586H14.0416L14.0417 21.2587ZM15.7013 32.4856V27.279H15.7338C15.9291 28.0383 16.3142 28.6485 16.8891 29.1095C17.464 29.5704 18.1961 29.801 19.0855 29.801C19.6604 29.801 20.1703 29.6844 20.615 29.4512C21.0598 29.218 21.4313 28.9007 21.7296 28.4993C22.0278 28.098 22.2557 27.6316 22.413 27.1C22.5702 26.5686 22.6489 26.0099 22.6489 25.4242C22.6489 24.795 22.5675 24.2147 22.4048 23.6832C22.2421 23.1517 22.0062 22.6906 21.6971 22.3002C21.3879 21.9097 21.0137 21.6059 20.5743 21.3891C20.1351 21.1721 19.6388 21.0636 19.0855 21.0636C18.6625 21.0636 18.2693 21.126 17.906 21.2507C17.5426 21.3755 17.2199 21.5517 16.9379 21.7795C16.6542 22.0091 16.4073 22.2807 16.2057 22.5849C15.9996 22.8941 15.8423 23.233 15.7338 23.6019H15.7013V21.2587H15.3759V32.4856H15.7013V32.4856ZM19.0855 29.4917C18.066 29.4917 17.247 29.1419 16.6287 28.4423C16.0104 27.7427 15.7013 26.7365 15.7013 25.424C15.7013 24.8817 15.7772 24.3664 15.9291 23.8783C16.081 23.3903 16.3006 22.9617 16.588 22.593C16.8755 22.2241 17.2308 21.9313 17.6537 21.7144C18.0768 21.4974 18.5541 21.3889 19.0855 21.3889C19.6279 21.3889 20.1025 21.4974 20.5093 21.7144C20.916 21.9313 21.2523 22.2269 21.5181 22.6011C21.7838 22.9753 21.9845 23.4038 22.1201 23.8864C22.2557 24.3692 22.3234 24.8817 22.3234 25.424C22.3234 25.9122 22.2611 26.3977 22.1363 26.8803C22.0116 27.363 21.819 27.7969 21.5587 28.1821C21.2984 28.567 20.9649 28.8816 20.5581 29.1257C20.1513 29.3697 19.6604 29.4917 19.0855 29.4917V29.4917ZM24.4387 29.6219V24.8871C24.4387 24.4316 24.5037 23.9867 24.634 23.5529C24.7641 23.1191 24.9647 22.7366 25.2359 22.4059C25.5071 22.075 25.8515 21.8147 26.2691 21.6248C26.6867 21.435 27.183 21.3564 27.7579 21.3889V21.0635C27.2589 21.0528 26.8224 21.1069 26.4481 21.2262C26.0738 21.3455 25.7512 21.5082 25.48 21.7144C25.2088 21.9204 24.9919 22.1617 24.8292 22.4384C24.6666 22.7146 24.546 23.0135 24.4712 23.3251H24.4387V21.2587H24.1133V29.622H24.4387V29.6219ZM28.1646 25.5054H35.161C35.1828 24.9305 35.1259 24.3774 34.9902 23.8458C34.8547 23.3143 34.6377 22.8424 34.3395 22.4303C34.0411 22.0181 33.6561 21.6872 33.1842 21.4377C32.7123 21.1882 32.151 21.0635 31.5002 21.0635C31.0337 21.0635 30.5781 21.1612 30.1334 21.3565C29.6887 21.5517 29.2981 21.8363 28.9619 22.2106C28.6257 22.5848 28.3545 23.0431 28.1484 23.5856C27.9424 24.1279 27.8393 24.7461 27.8393 25.4404C27.8393 26.0586 27.9098 26.6362 28.0508 27.1732C28.1918 27.7101 28.4087 28.1766 28.7016 28.5725C28.9945 28.9684 29.3715 29.2748 29.8324 29.4917C30.2934 29.7087 30.8493 29.8117 31.5002 29.8009C32.4547 29.8009 33.2574 29.5323 33.9082 28.9955C34.5591 28.4585 34.9441 27.702 35.0635 26.7257H34.7381C34.5971 27.6478 34.2363 28.3393 33.6561 28.8002C33.0757 29.2612 32.3463 29.4917 31.4676 29.4917C30.871 29.4917 30.3666 29.3887 29.9544 29.1826C29.5423 28.9766 29.206 28.6945 28.9456 28.3365C28.6854 27.9785 28.4928 27.5582 28.3681 27.0755C28.2433 26.5929 28.1755 26.0695 28.1646 25.5054ZM34.8356 25.18H28.1647C28.1972 24.5943 28.3057 24.0682 28.49 23.6018C28.6745 23.1353 28.9158 22.7366 29.2142 22.4059C29.5124 22.075 29.8596 21.8229 30.2555 21.6492C30.6514 21.4757 31.0771 21.3889 31.5327 21.3889C32.0751 21.3889 32.5522 21.4893 32.9646 21.69C33.3767 21.8906 33.7211 22.1646 33.9978 22.5116C34.2743 22.8587 34.4831 23.2628 34.6241 23.7237C34.7651 24.1848 34.8356 24.6702 34.8356 25.18ZM41.9135 23.732H42.2389C42.2389 22.799 41.9677 22.1211 41.4254 21.6981C40.8829 21.275 40.1453 21.0635 39.2125 21.0635C38.6918 21.0635 38.2525 21.1286 37.8945 21.2588C37.5366 21.3889 37.2437 21.557 37.0159 21.7631C36.7882 21.9692 36.6255 22.197 36.5278 22.4465C36.4302 22.696 36.3813 22.9347 36.3813 23.1624C36.3813 23.618 36.4627 23.9814 36.6255 24.2526C36.7882 24.5237 37.0431 24.7353 37.3901 24.8871C37.6288 24.9955 37.8999 25.0932 38.2037 25.1801C38.5074 25.2668 38.86 25.359 39.2613 25.4566C39.6192 25.5435 39.9718 25.6302 40.3189 25.7169C40.666 25.8037 40.9725 25.9203 41.2382 26.0667C41.504 26.2132 41.7209 26.4003 41.8891 26.6281C42.0571 26.8559 42.1412 27.1542 42.1412 27.523C42.1412 27.881 42.0572 28.1847 41.8891 28.4341C41.7223 28.6823 41.5029 28.8907 41.2464 29.0444C40.986 29.2016 40.6958 29.3154 40.3759 29.386C40.0559 29.4565 39.744 29.4917 39.4403 29.4917C38.4532 29.4917 37.6966 29.2721 37.1705 28.8328C36.6444 28.3935 36.3814 27.702 36.3814 26.7582H36.056C36.056 27.8105 36.3407 28.5806 36.9102 29.0688C37.4797 29.5569 38.323 29.8009 39.4403 29.8009C39.7982 29.8009 40.1589 29.7602 40.5224 29.6788C40.8856 29.5975 41.2111 29.4647 41.4985 29.2802C41.7835 29.0983 42.0229 28.8534 42.1981 28.5644C42.3771 28.2714 42.4667 27.9135 42.4667 27.4904C42.4667 27.0891 42.388 26.7637 42.2308 26.5142C42.0734 26.2648 41.8674 26.0586 41.6124 25.8959C41.3575 25.7332 41.0701 25.6058 40.7501 25.5136C40.4283 25.4209 40.1055 25.3313 39.7819 25.245C39.3837 25.1406 38.985 25.0375 38.586 24.936C38.2444 24.8491 37.9271 24.7461 37.6343 24.6268C37.3522 24.5074 37.1271 24.3366 36.959 24.1143C36.7908 23.8919 36.7068 23.5746 36.7068 23.1624C36.7068 23.0865 36.7285 22.9509 36.7719 22.7557C36.8152 22.5604 36.9184 22.3624 37.0811 22.1617C37.2437 21.9612 37.4932 21.7821 37.8295 21.6248C38.1657 21.4676 38.6268 21.3889 39.2125 21.3889C39.6139 21.3889 39.9799 21.4323 40.3107 21.5191C40.6416 21.6059 40.9264 21.7442 41.1649 21.934C41.4036 22.1238 41.588 22.3652 41.7182 22.658C41.8483 22.951 41.9135 23.3089 41.9135 23.732V23.732ZM49.4468 23.732H49.7722C49.7722 22.799 49.5011 22.1211 48.9587 21.6981C48.4163 21.275 47.6787 21.0635 46.7458 21.0635C46.2252 21.0635 45.7858 21.1286 45.4279 21.2588C45.0699 21.3889 44.7771 21.557 44.5493 21.7631C44.3215 21.9692 44.1588 22.197 44.0611 22.4465C43.9635 22.696 43.9147 22.9347 43.9147 23.1624C43.9147 23.618 43.9961 23.9814 44.1589 24.2526C44.3215 24.5237 44.5765 24.7353 44.9235 24.8871C45.1622 24.9955 45.4333 25.0932 45.737 25.1801C46.0407 25.2668 46.3933 25.359 46.7946 25.4566C47.1526 25.5435 47.5052 25.6302 47.8522 25.7169C48.1994 25.8037 48.5058 25.9203 48.7716 26.0667C49.0373 26.2132 49.2543 26.4003 49.4224 26.6281C49.5905 26.8559 49.6746 27.1542 49.6746 27.523C49.6746 27.881 49.5905 28.1847 49.4224 28.4341C49.2557 28.6823 49.0363 28.8907 48.7798 29.0444C48.5193 29.2016 48.2292 29.3154 47.9092 29.386C47.5893 29.4565 47.2773 29.4917 46.9736 29.4917C45.9865 29.4917 45.23 29.2721 44.7039 28.8328C44.1777 28.3935 43.9147 27.702 43.9147 26.7582H43.5894C43.5894 27.8105 43.874 28.5806 44.4436 29.0688C45.013 29.5569 45.8563 29.8009 46.9736 29.8009C47.3316 29.8009 47.6923 29.7602 48.0557 29.6788C48.4189 29.5975 48.7444 29.4647 49.0319 29.2802C49.3169 29.0983 49.5563 28.8534 49.7315 28.5644C49.9105 28.2714 50 27.9135 50 27.4904C50 27.0891 49.9214 26.7637 49.7641 26.5142C49.6068 26.2648 49.4008 26.0586 49.1458 25.8959C48.8909 25.7332 48.6034 25.6058 48.2835 25.5136C47.9617 25.4209 47.6389 25.3313 47.3153 25.245C46.9171 25.1406 46.5184 25.0375 46.1194 24.936C45.7777 24.8491 45.4604 24.7461 45.1676 24.6268C44.8855 24.5074 44.6604 24.3366 44.4924 24.1143C44.3242 23.8919 44.2401 23.5746 44.2401 23.1624C44.2401 23.0865 44.2618 22.9509 44.3053 22.7557C44.3486 22.5604 44.4518 22.3624 44.6144 22.1617C44.7771 21.9612 45.0266 21.7821 45.3628 21.6248C45.6991 21.4676 46.1601 21.3889 46.7459 21.3889C47.1473 21.3889 47.5133 21.4323 47.8441 21.5191C48.175 21.6059 48.4597 21.7442 48.6983 21.934C48.937 22.1238 49.1214 22.3652 49.2516 22.658C49.3817 22.951 49.4469 23.3089 49.4469 23.732H49.4468Z" fill="#222222"/>
</g>
<defs>
<clipPath id="clip0_2_244">
<rect width="50" height="14.56" fill="white" transform="translate(0 18)"/>
</clipPath>
</defs>
</svg>
