<svg width="50" height="50" viewBox="0 0 50 50" fill="none" xmlns="http://www.w3.org/2000/svg">
<g clip-path="url(#clip0_2_252)">
<path d="M16.3367 49.9999C20.9367 49.9999 24.67 46.2666 24.67 41.6666V33.3333H16.3367C11.7367 33.3333 8.00333 37.0667 8.00333 41.6666C8.00333 46.2666 11.7367 49.9999 16.3367 49.9999Z" fill="#0ACF83"/>
<path d="M8.00333 25C8.00333 20.4 11.7367 16.6667 16.3367 16.6667H24.67V33.3333H16.3367C11.7367 33.3333 8.00333 29.6 8.00333 25Z" fill="#A259FF"/>
<path d="M8.00333 8.33333C8.00333 3.73333 11.7367 9.53674e-07 16.3367 9.53674e-07H24.67V16.6667H16.3367C11.7367 16.6667 8.00333 12.9333 8.00333 8.33333Z" fill="#F24E1E"/>
<path d="M24.67 9.53674e-07H33.0034C37.6034 9.53674e-07 41.3367 3.73333 41.3367 8.33333C41.3367 12.9333 37.6034 16.6667 33.0034 16.6667H24.67V9.53674e-07Z" fill="#FF7262"/>
<path d="M41.3367 25C41.3367 29.6 37.6034 33.3333 33.0034 33.3333C28.4033 33.3333 24.67 29.6 24.67 25C24.67 20.4 28.4033 16.6667 33.0034 16.6667C37.6034 16.6667 41.3367 20.4 41.3367 25Z" fill="#1ABCFE"/>
</g>
<defs>
<clipPath id="clip0_2_252">
<rect width="33.34" height="50" fill="white" transform="translate(8)"/>
</clipPath>
</defs>
</svg>
