<svg width="50" height="50" viewBox="0 0 50 50" fill="none" xmlns="http://www.w3.org/2000/svg">
<g clip-path="url(#clip0_1_75)">
<path d="M2.08331 2.14137H47.9167V47.8584H2.08331V2.14137Z" fill="url(#paint0_radial_1_75)"/>
<path d="M2.08331 2.14137H47.9167V47.8585H2.08331V2.14137ZM9.53674e-07 49.9948H50V0.00508499H9.53674e-07V49.9948ZM32.75 17.8219C32.75 17.651 32.8125 17.5655 33 17.5655H36.2709C36.4374 17.5655 36.5208 17.6296 36.5208 17.8219V34.6775C36.5208 34.8483 36.4792 34.9338 36.2709 34.9338H33.0417C32.8334 34.9338 32.7708 34.827 32.7708 34.6561V17.8219H32.75ZM32.5209 12.9725C32.5209 11.6052 33.4583 10.7935 34.6459 10.7935C35.9167 10.7935 36.7709 11.6693 36.7709 12.9725C36.7709 14.3824 35.8751 15.1515 34.6043 15.1515C33.3958 15.1516 32.5209 14.3824 32.5209 12.9725ZM23.1459 24.8504C22.5626 22.4791 21.1876 17.3092 20.6667 14.8097H20.625C20.1875 17.3092 19.0834 21.539 18.2084 24.8504H23.1459V24.8504ZM17.3542 28.3113L15.7083 34.7202C15.6667 34.891 15.6042 34.9337 15.3959 34.9337H12.3334C12.1251 34.9337 12.0833 34.8696 12.1251 34.6133L18.0417 13.3783C18.1458 12.9938 18.2083 12.652 18.25 11.6052C18.25 11.4557 18.3125 11.3916 18.4166 11.3916H22.7916C22.9375 11.3916 23 11.4344 23.0417 11.6052L29.6667 34.656C29.7083 34.8268 29.6667 34.9337 29.5 34.9337H26.0416C25.875 34.9337 25.7708 34.891 25.7292 34.7416L24.0208 28.3113H17.3542V28.3113Z" fill="#FF7F18"/>
</g>
<defs>
<radialGradient id="paint0_radial_1_75" cx="0" cy="0" r="1" gradientUnits="userSpaceOnUse" gradientTransform="translate(17.1786 12.3866) scale(34.8334 34.5826)">
<stop stop-color="#423325" stop-opacity="0.98"/>
<stop offset="1" stop-color="#1C0A00"/>
</radialGradient>
<clipPath id="clip0_1_75">
<rect width="50" height="50" fill="white"/>
</clipPath>
</defs>
</svg>
