<svg xmlns="http://www.w3.org/2000/svg" width="56" height="50" fill="none" viewBox="0 0 56 50"><g clip-path="url(#clip0_1_95)"><path fill="#000" d="M50.8537 17.4241C50.844 17.463 50.844 17.502 50.8537 17.541C50.8537 17.541 50.9804 18.3695 50.8342 18.7398L44.8304 34.3636C44.4015 35.5137 44.9765 36.7905 46.1266 37.2292C47.2767 37.6676 48.5536 37.1024 49.0117 35.9621L55.0155 20.3382C55.1324 20.0361 55.8049 19.4415 55.8049 19.4415C55.8342 19.4122 55.8634 19.383 55.8829 19.3538V19.3441C55.8829 19.3343 55.8926 19.3343 55.8926 19.3245C56.0486 18.925 55.0447 18.1648 53.6607 17.6287C52.2767 17.0926 51.0194 16.9854 50.8635 17.3948C50.8635 17.3948 50.8537 17.4045 50.8537 17.4241Z" opacity=".1"/><path fill="url(#paint0_linear_1_95)" d="M50.6784 17.2875C50.6687 17.3266 50.6687 17.3656 50.6784 17.4045C50.6784 17.4045 50.8052 18.2329 50.6589 18.6034L44.655 34.2272C44.2263 35.3773 44.8013 36.654 45.9514 37.0926C47.1015 37.5312 48.3783 36.9659 48.8364 35.8256L54.8404 20.2018C54.9574 19.8996 55.6298 19.3051 55.6298 19.3051C55.6591 19.2758 55.6884 19.2466 55.7079 19.2174V19.2077C55.7079 19.1979 55.7176 19.1979 55.7176 19.1881C55.8736 18.7885 54.8697 18.0284 53.4856 17.4922C52.1015 16.9562 50.8441 16.849 50.6882 17.2583C50.6882 17.2681 50.6882 17.2779 50.6784 17.2876V17.2875Z"/><path fill="url(#paint1_linear_1_95)" d="M52.5692 24.3539L48.2319 35.6209C47.9103 36.4299 46.9844 36.849 46.1559 36.5274C45.3274 36.2057 44.8889 35.2603 45.1911 34.4513L47.9591 27.2486C47.9591 27.2486 48.3002 26.693 48.9825 26.2935C49.6647 25.8938 50.2203 25.9815 50.9708 25.6501C51.7309 25.3188 52.5692 24.3539 52.5692 24.3539V24.3539Z"/><path fill="#333" d="M54.6723 18.8622C54.7588 18.6368 54.1369 18.1869 53.2835 17.8574C52.43 17.5279 51.6681 17.4435 51.5818 17.6689C51.4954 17.8944 52.1172 18.3442 52.9706 18.6738C53.8241 19.0033 54.586 19.0876 54.6723 18.8622Z"/><path fill="#fff" d="M50.638 17.4034C50.638 17.4034 50.7638 18.2295 50.6185 18.5989L44.6539 34.1787C44.228 35.3254 44.7992 36.5987 45.9418 37.0361C46.1355 37.1138 46.3388 37.1623 46.5421 37.1721C46.1599 36.8803 45.8813 36.4737 45.7471 36.0119C45.6129 35.5501 45.6302 35.0575 45.7965 34.6063L51.645 19.3375C51.645 19.3375 50.8413 18.5891 50.638 17.4034V17.4034Z" opacity=".3"/><g opacity=".5"><path fill="#fff" d="M48.7208 27.6279C48.8171 27.6279 48.8952 27.5496 48.8952 27.453C48.8952 27.3564 48.8171 27.2781 48.7208 27.2781C48.6244 27.2781 48.5463 27.3564 48.5463 27.453C48.5463 27.5496 48.6244 27.6279 48.7208 27.6279Z" opacity=".5"/><path fill="#fff" d="M49.8537 28.9692C49.9981 28.9692 50.1151 28.8517 50.1151 28.7068C50.1151 28.5618 49.9981 28.4444 49.8537 28.4444C49.7093 28.4444 49.5923 28.5618 49.5923 28.7068C49.5923 28.8517 49.7093 28.9692 49.8537 28.9692Z" opacity=".5"/><path fill="#fff" d="M48.1204 30.6992C48.3932 30.6992 48.6143 30.4773 48.6143 30.2035C48.6143 29.9297 48.3932 29.7077 48.1204 29.7077C47.8477 29.7077 47.6266 29.9297 47.6266 30.2035C47.6266 30.4773 47.8477 30.6992 48.1204 30.6992Z" opacity=".5"/><path fill="#fff" d="M47.3265 31.3795C47.4709 31.3795 47.5879 31.262 47.5879 31.1171C47.5879 30.9722 47.4709 30.8547 47.3265 30.8547C47.1821 30.8547 47.0651 30.9722 47.0651 31.1171C47.0651 31.262 47.1821 31.3795 47.3265 31.3795Z" opacity=".5"/><path fill="#fff" d="M48.3625 33.2357C48.4588 33.2357 48.5369 33.1574 48.5369 33.0608C48.5369 32.9642 48.4588 32.8859 48.3625 32.8859C48.2663 32.8859 48.1882 32.9642 48.1882 33.0608C48.1882 33.1574 48.2663 33.2357 48.3625 33.2357Z" opacity=".5"/></g><path fill="#000" d="M17.7641 26.4908C18.0272 26.7046 18.5049 26.5783 18.8265 26.2284C19.1677 25.859 19.2164 25.3829 18.9532 25.169C18.69 24.9551 18.2125 25.0815 17.8908 25.4508C17.5497 25.8202 17.4912 26.2868 17.7641 26.4909V26.4908ZM16.9747 27.1808C16.9063 27.1808 16.7797 27.3072 16.8869 27.3558C17.0331 27.4043 17.1014 27.5307 17.1014 27.7057C16.9747 28.4346 16.0681 29.2608 15.7174 29.5426C15.6296 29.63 15.7563 29.8245 15.844 29.7565C16.039 29.6009 16.4483 29.2802 16.7797 28.8526C16.2339 30.0674 15.1618 31.6419 14.7524 32.1959C13.154 34.4022 10.727 36.4334 9.06043 36.4334C7.72507 36.4334 6.5946 35.5295 6.35085 34.2079C6.33132 34.062 6.1364 34.0329 6.17536 34.2272C6.47751 36.0447 7.88103 36.7541 9.57693 36.7541C11.4386 36.7541 13.6219 35.4129 14.8304 34.0329C16.7797 31.8072 18.037 29.2413 17.7057 27.7931C17.5692 27.2586 17.189 27.171 16.9747 27.1808V27.1808ZM28.9532 32.0307C29.4698 31.9043 29.8889 31.6225 29.8889 31.1754C29.8889 31.1268 29.8012 31.1268 29.8012 31.1754C29.8012 31.4378 29.499 31.6614 29.1579 31.71C28.3587 31.8363 26.7797 30.9033 26.039 29.9411C26.8382 30.2423 28.4659 29.805 29.2358 29.251C29.9474 28.7359 30.23 28.1722 30.2788 27.7154C30.3665 26.9573 29.538 26.5103 28.3781 26.9573C27.6374 27.2586 26.7505 27.9098 25.8246 29.1344C26.7992 27.5307 28.7193 24.9066 30.6004 23.2349C32.8908 21.2037 34.2164 21.5923 32.1599 23.75C31.3119 24.6344 29.7135 25.7813 28.612 26.277C28.271 26.4228 28.4366 26.6171 28.6804 26.5102C29.8499 25.9952 31.4094 24.9357 32.3548 24.0512C35.1423 21.3786 32.8128 19.3666 29.7329 22.195C27.6374 24.1193 26.2729 26.1312 25.0838 28.7456C24.6745 29.2413 24.3724 29.6495 24.0019 29.9605C23.9531 29.9994 23.924 30.0382 23.8947 30.0772C22.8713 30.9519 21.2632 32.1376 20.2593 32.1473C19.5477 32.1668 19.2456 31.6322 19.3724 30.9422C19.5673 29.8633 20.6881 28.5901 21.6433 28.1528C22.881 27.589 23.612 28.6873 21.9844 29.562C21.3606 29.8828 20.6199 30.0577 20.3178 30.0577C19.9669 30.0577 19.9961 30.2035 20.2982 30.2132C20.7953 30.2327 21.5945 30.0189 22.1209 29.7758C23.7875 28.9789 23.8947 27.4918 22.0818 27.4433C20.1131 27.3752 17.7544 29.0469 17.7739 31.156C17.7934 32.1084 18.5536 32.6236 19.5965 32.6236C21.3411 32.604 22.8908 31.2823 24.1677 30.1161C24.3528 29.9605 24.5282 29.7953 24.7037 29.6204C24.2554 30.7478 24.0311 31.7974 24.1384 32.5749C24.2066 33.1387 24.5282 33.4011 24.7816 33.615C24.8305 33.6538 24.9376 33.615 24.8694 33.5079C24.499 33.0706 24.6062 31.7585 25.1131 30.4854C25.5419 31.3407 27.2086 32.4195 28.9532 32.0307ZM26.8577 28.3471C28.8948 26.5297 29.6939 28.1528 28.3977 29.1441C27.7251 29.6592 26.3898 30.048 25.9708 29.7953L25.883 29.7467C25.8343 29.6592 25.7758 29.5717 25.7368 29.4843C26.0779 29.0663 26.4679 28.697 26.8577 28.3471ZM38.1832 26.277C39.002 26.3644 38.6608 25.3731 37.8323 25.6258C37.462 25.7327 37.1014 26.4422 36.8382 27.0545C36.0195 28.2694 34.655 29.9314 33.6998 30.8061C32.8519 31.535 32.0722 31.7294 33.0273 30.3687C33.4172 29.8245 33.9143 29.2413 34.1969 28.6581C34.8694 27.1906 33.4366 26.5394 32.2768 27.4238C31.6043 27.9389 30.6979 28.9983 29.9863 29.5815C29.7914 29.737 29.8401 29.9702 30.0352 29.8147C30.6004 29.358 31.5945 28.3082 32.4523 27.6959C33.1638 27.1517 33.4464 27.5016 33.037 27.9583C32.4718 28.6095 31.4775 29.7467 31.2242 30.4659C30.8733 31.5448 31.2924 32.0209 32.0039 32.0209C32.9785 32.0209 34.4308 30.5048 35.4055 29.2996C35.7271 28.8914 36.0779 28.4152 36.3801 27.9583C35.5321 29.6009 34.6452 31.2628 33.5439 32.7694C31.9844 34.8881 30.0351 36.4821 28.1832 36.4821C26.8479 36.4821 25.6978 35.5782 25.4542 34.2564C25.4347 34.1106 25.2593 34.0814 25.2787 34.2758C25.5809 36.0932 26.9844 36.8028 28.6803 36.8028C30.5419 36.8028 32.3353 35.724 33.5926 34.4022C36.1268 31.7293 36.4288 28.7262 37.2086 27.0448C37.5789 26.277 37.9104 26.2479 38.1832 26.277V26.277ZM48.4951 23.711C48.8656 23.0792 48.846 22.5836 47.9785 22.5836C47.3255 22.6031 46.1365 23.0598 45.5809 23.4874C45.4542 23.6138 45.5127 23.6818 45.6687 23.6138C45.7758 23.5749 45.9026 23.5069 46.0196 23.4583C46.6433 23.1181 46.3899 23.8277 46.2534 24.0901C45.5127 25.3828 44.1969 27.2001 43.5049 28.104C43.1764 28.5461 42.8216 28.968 42.4425 29.3675C41.7797 29.9994 40.464 31.117 39.4601 31.4863C36.2339 32.6914 40.347 27.2099 40.6881 26.7628C41.4484 25.8104 43.1539 24.1484 43.6705 23.3125C44.0409 22.6807 44.0215 22.1851 43.1539 22.1851C42.501 22.2046 41.3119 22.6614 40.7564 23.089C40.6296 23.2154 40.6881 23.2833 40.8441 23.2154C40.9513 23.1765 41.0779 23.1084 41.1949 23.0598C41.8188 22.7197 41.5653 23.4291 41.4288 23.6916C40.6881 24.9842 39.3724 26.8017 38.6803 27.7056C38.1151 28.4637 37.4231 29.2217 36.8869 29.6494C36.6726 29.8244 36.7992 29.9896 37.0137 29.8438C37.2086 29.7174 37.4912 29.4356 37.8129 29.1051C37.228 30.2714 36.7505 31.914 38.2904 32.1083C39.6063 32.2832 41.1657 30.9518 42.1793 29.9604L42.54 29.6008L42.6277 29.5133C42.0429 30.6796 41.5654 32.3222 43.1052 32.5165C44.7914 32.7498 46.8869 30.4853 47.696 29.6494C47.8519 29.4939 47.8032 29.2217 47.54 29.4939C47.0624 29.9896 45.4445 31.4572 44.2749 31.8945C41.0487 33.0996 45.1618 27.6181 45.503 27.171C46.273 26.1992 47.9785 24.5371 48.4951 23.7111V23.711Z" opacity=".1"/><path fill="url(#paint2_linear_1_95)" d="M17.5887 26.3255C17.8519 26.5394 18.3294 26.413 18.6511 26.0631C18.9922 25.6938 19.0409 25.2176 18.7777 25.0037C18.5146 24.7899 18.037 24.9162 17.7154 25.2856C17.3743 25.6549 17.3255 26.1118 17.5887 26.3256V26.3255ZM16.809 27.0157C16.7407 27.0157 16.6141 27.1419 16.7213 27.1906C16.8675 27.2392 16.9356 27.3655 16.9356 27.5405C16.809 28.2694 15.9024 29.0955 15.5517 29.3774C15.464 29.4649 15.5907 29.6592 15.6783 29.5912C15.8733 29.4357 16.2826 29.115 16.6141 28.6873C16.0682 29.9022 14.9961 31.4767 14.5867 32.0307C12.9883 34.2369 10.5613 36.2682 8.89473 36.2682C7.55948 36.2682 6.42892 35.3643 6.18517 34.0426C6.16564 33.8967 5.97081 33.8676 6.00978 34.0619C6.31192 35.8794 7.71544 36.5889 9.41133 36.5889C11.273 36.5889 13.4562 35.2477 14.6647 33.8676C16.614 31.6419 17.8714 29.0761 17.5399 27.628C17.3937 27.0836 17.0233 26.9961 16.809 27.0157V27.0157ZM28.7777 31.8655C29.2943 31.7391 29.7135 31.4573 29.7135 31.0102C29.7135 30.9616 29.6257 30.9616 29.6257 31.0102C29.6257 31.2726 29.3236 31.4961 28.9824 31.5448C28.1832 31.671 26.6043 30.7381 25.8636 29.7758C26.6628 30.0772 28.2904 29.6398 29.0604 29.0858C29.772 28.5706 30.0546 28.007 30.1033 27.5501C30.191 26.792 29.3626 26.3451 28.2027 26.792C27.462 27.0934 26.575 27.7446 25.6491 28.9692C26.6237 27.3655 28.5438 24.7413 30.425 23.0697C32.7154 21.0384 34.0409 21.4271 31.9844 23.5848C31.1364 24.4692 29.5381 25.616 28.4366 26.1118C28.0955 26.2576 28.2612 26.4519 28.5049 26.345C29.6745 25.8299 31.2339 24.7705 32.1793 23.886C34.9669 21.2133 32.6374 19.2014 29.5575 22.0297C27.462 23.9444 26.0975 25.966 24.9084 28.5804C24.499 29.0761 24.1969 29.4843 23.8265 29.7952C23.7777 29.8341 23.7485 29.8731 23.7193 29.9119C22.6959 30.7867 21.0877 31.9724 20.0838 31.9821C19.3724 32.0016 19.0701 31.4669 19.1969 30.777C19.3918 29.6981 20.5127 28.4248 21.4679 27.9875C22.7057 27.4239 23.4366 28.5221 21.809 29.3967C21.1851 29.7175 20.4444 29.8925 20.1423 29.8925C19.7914 29.8925 19.8207 30.0382 20.1227 30.048C20.6198 30.0674 21.4191 29.8536 21.9454 29.6106C23.6121 28.8137 23.7193 27.3266 21.9063 27.2781C19.9376 27.21 17.5789 28.8817 17.5984 30.9908C17.618 31.9432 18.3781 32.4583 19.4211 32.4583C21.1657 32.4388 22.7154 31.1171 23.9922 29.9508C24.1773 29.7952 24.3528 29.63 24.5283 29.4551C24.0799 30.5825 23.8557 31.6322 23.9629 32.4097C24.0312 32.9735 24.3528 33.2359 24.6062 33.4497C24.655 33.4885 24.7622 33.4497 24.6939 33.3428C24.3236 32.9054 24.4307 31.5933 24.9376 30.3201C25.3762 31.1754 27.0429 32.2542 28.7777 31.8655ZM26.6822 28.1721C28.7193 26.3547 29.5185 27.9778 28.2222 28.9692C27.5497 29.4843 26.2144 29.8731 25.7953 29.6203L25.7076 29.5717C25.6588 29.4843 25.6004 29.3968 25.5614 29.3093C25.9025 28.9011 26.2924 28.5221 26.6822 28.1722V28.1721ZM38.0078 26.1118C38.8264 26.1993 38.4853 25.2079 37.6569 25.4607C37.2865 25.5675 36.9258 26.2771 36.6628 26.8894C35.844 28.1042 34.4795 29.7662 33.5244 30.6409C32.6763 31.3699 31.8967 31.5643 32.8518 30.2035C33.2417 29.6593 33.7387 29.0762 34.0215 28.493C34.6939 27.0254 33.2612 26.3743 32.1013 27.2586C31.4288 27.7738 30.5224 28.8331 29.8109 29.4163C29.616 29.5718 29.6647 29.805 29.8596 29.6495C30.425 29.1928 31.4191 28.1431 32.2767 27.5308C32.9883 26.9866 33.2709 27.3365 32.8616 27.7932C32.2963 28.4445 31.3021 29.5816 31.0487 30.3008C30.6978 31.3796 31.117 31.8558 31.8284 31.8558C32.803 31.8558 34.2553 30.3397 35.23 29.1345C35.5516 28.7263 35.9025 28.25 36.2046 27.7932C35.3567 29.4358 34.4698 31.0978 33.3684 32.6042C31.8089 34.723 29.8596 36.3169 28.0078 36.3169C26.6725 36.3169 25.5224 35.413 25.2787 34.0912C25.2592 33.9454 25.0838 33.9162 25.1033 34.1107C25.4055 35.9281 26.809 36.6376 28.5049 36.6376C30.3665 36.6376 32.1598 35.5588 33.4172 34.237C35.9512 31.5642 36.2534 28.5611 37.0331 26.8796C37.4035 26.1118 37.7446 26.073 38.0077 26.1118H38.0078ZM48.3197 23.5362C48.69 22.9044 48.6706 22.4087 47.8031 22.4087C47.1501 22.4283 45.961 22.885 45.4054 23.3126C45.2787 23.439 45.3372 23.507 45.4931 23.439C45.6004 23.4001 45.727 23.3321 45.844 23.2834C46.4678 22.9433 46.2144 23.6528 46.0779 23.9153C45.3372 25.2078 44.0214 27.0253 43.3294 27.9292C43.0009 28.3713 42.6462 28.7932 42.2671 29.1927C41.6043 29.8244 40.2885 30.9421 39.2846 31.3115C36.0585 32.5166 40.1715 27.0351 40.5127 26.5879C41.2729 25.6355 42.9785 23.9736 43.4951 23.1377C43.8655 22.5059 43.846 22.0103 42.9785 22.0103C42.3255 22.0297 41.1364 22.4865 40.5808 22.9141C40.4542 23.0405 40.5127 23.1085 40.6686 23.0405C40.7757 23.0016 40.9025 22.9336 41.0195 22.885C41.6432 22.5449 41.3898 23.2543 41.2534 23.5167C40.5127 24.8094 39.1968 26.6269 38.5049 27.5307C37.9395 28.2888 37.2475 29.0469 36.7115 29.4745C36.497 29.6494 36.6238 29.8147 36.8382 29.6689C37.0331 29.5426 37.3157 29.2607 37.6374 28.9303C37.0526 30.0966 36.575 31.7391 38.1149 31.9335C39.4307 32.1084 40.9902 30.7769 42.0039 29.7856L42.3645 29.4259L42.4522 29.3385C41.8674 30.5048 41.3898 32.1473 42.9297 32.3417C44.616 32.5749 46.7115 30.3105 47.5205 29.4745C47.6763 29.3191 47.6276 29.0469 47.3645 29.3191C46.887 29.8147 45.269 31.2823 44.0994 31.7197C40.8733 32.9248 44.9863 27.4433 45.3274 26.9961C46.1072 26.0243 47.803 24.3623 48.3196 23.5362H48.3197Z"/></g><defs><linearGradient id="paint0_linear_1_95" x1="47.202" x2="52.387" y1="26.325" y2="26.938" gradientUnits="userSpaceOnUse"><stop stop-color="#919191"/><stop offset="1" stop-color="#fff"/></linearGradient><linearGradient id="paint1_linear_1_95" x1="47.071" x2="50.215" y1="29.559" y2="30.007" gradientUnits="userSpaceOnUse"><stop stop-color="#900"/><stop offset="1" stop-color="#E80000"/></linearGradient><linearGradient id="paint2_linear_1_95" x1="27.276" x2="27.276" y1="36.609" y2="20.652" gradientUnits="userSpaceOnUse"><stop stop-color="#1A1A1A"/><stop offset=".403" stop-color="#4A4A4C"/><stop offset="1" stop-color="#333"/></linearGradient><clipPath id="clip0_1_95"><rect width="50" height="20.42" fill="#fff" transform="translate(6 17)"/></clipPath></defs></svg>