<svg width="50" height="50" viewBox="0 0 50 50" fill="none" xmlns="http://www.w3.org/2000/svg">
<path d="M0 0H50V50H0V0Z" fill="#F0DB4F"/>
<path d="M45.9078 38.0752C45.5418 35.7938 44.0542 33.8784 39.6483 32.0913C38.1179 31.3879 36.4116 30.8841 35.9031 29.7244C35.7225 29.0495 35.6987 28.6692 35.8128 28.2605C36.1407 26.9344 37.7234 26.5209 38.9782 26.9012C39.7861 27.1721 40.5514 27.7948 41.0124 28.7881C43.1702 27.3908 43.1654 27.4002 44.6721 26.4402C44.1207 25.5847 43.8261 25.1901 43.4648 24.8242C42.1673 23.3746 40.3993 22.6284 37.5713 22.6854C37.0818 22.7472 36.5875 22.8137 36.0979 22.8755C34.6864 23.232 33.3413 23.9734 32.5523 24.9668C30.1854 27.6522 30.8603 32.3527 33.7405 34.2872C36.578 36.4165 40.7462 36.9013 41.2785 38.8928C41.7966 41.331 39.4868 42.1199 37.1911 41.8395C35.4991 41.4878 34.5581 40.6276 33.5409 39.0639C31.6683 40.1475 31.6683 40.1475 29.7434 41.2549C30.1997 42.253 30.6797 42.7046 31.445 43.5696C35.0666 47.2436 44.1302 47.063 45.7558 41.5021C45.8222 41.3119 46.2596 40.0381 45.9078 38.0752V38.0752ZM27.1816 22.98H22.5048C22.5048 27.02 22.4859 31.0314 22.4859 35.0714C22.4859 37.6427 22.6189 40.0001 22.2007 40.7226C21.5163 42.1436 19.7435 41.9678 18.9355 41.6921C18.1132 41.2881 17.695 40.713 17.2102 39.9003C17.0771 39.6674 16.9773 39.4868 16.944 39.4726C15.675 40.2473 14.4107 41.0267 13.1417 41.8015C13.7739 43.099 14.7054 44.2254 15.8984 44.9573C17.6807 46.0267 20.0761 46.3547 22.5809 45.7796C24.2111 45.3043 25.6179 44.3205 26.3546 42.8233C27.4193 40.8604 27.1911 38.484 27.1816 35.8556C27.2054 31.5685 27.1816 27.2814 27.1816 22.98Z" fill="#323330"/>
</svg>
