<svg xmlns="http://www.w3.org/2000/svg" width="50" height="50" fill="none" viewBox="0 0 50 50"><g clip-path="url(#clip0_1_197)"><path fill="url(#paint0_linear_1_197)" d="M50 0H25.1042L1.33125 25H24.9563L25.0667 24.8875L50 0Z"/><path fill="url(#paint1_linear_1_197)" d="M50 50H0H50ZM25.0667 24.8875L24.9563 25H25.1792L25.0667 24.8875Z"/><path fill="url(#paint2_linear_1_197)" d="M25.1042 0H0V26.4V25H1.33125L25.1042 0Z"/><path fill="url(#paint3_linear_1_197)" d="M24.9563 25H1.33125L0 26.4V50L24.9563 25Z"/><path fill="url(#paint4_linear_1_197)" d="M25.1792 25H24.9563L0 50H50L25.1792 25Z"/><path fill="url(#paint5_linear_1_197)" d="M1.33125 25H0V26.4L1.33125 25Z"/></g><defs><linearGradient id="paint0_linear_1_197" x1="-8.924" x2="37.604" y1="45.693" y2="-.834" gradientUnits="userSpaceOnUse"><stop stop-color="#C757BC"/><stop offset=".108" stop-color="#C757BC"/><stop offset=".173" stop-color="#CD5CA9"/><stop offset=".492" stop-color="#E8744F"/><stop offset=".716" stop-color="#F88316"/><stop offset=".823" stop-color="#FF8900"/><stop offset="1" stop-color="#FF8900"/></linearGradient><linearGradient id="paint1_linear_1_197" x1="16.152" x2="38.83" y1="59.007" y2="36.328" gradientUnits="userSpaceOnUse"><stop stop-color="#00AFFF"/><stop offset=".296" stop-color="#00AFFF"/><stop offset=".694" stop-color="#5282FF"/><stop offset="1" stop-color="#945DFF"/></linearGradient><linearGradient id="paint2_linear_1_197" x1="-.527" x2="15.382" y1="13.818" y2="-2.091" gradientUnits="userSpaceOnUse"><stop stop-color="#00AFFF"/><stop offset=".296" stop-color="#00AFFF"/><stop offset=".694" stop-color="#5282FF"/><stop offset="1" stop-color="#945DFF"/></linearGradient><linearGradient id="paint3_linear_1_197" x1="-8.645" x2="37.883" y1="45.972" y2="-.555" gradientUnits="userSpaceOnUse"><stop stop-color="#AD4CA4"/><stop offset=".108" stop-color="#AD4CA4"/><stop offset=".173" stop-color="#B25093"/><stop offset=".492" stop-color="#CA6545"/><stop offset=".716" stop-color="#D87213"/><stop offset=".823" stop-color="#DE7700"/><stop offset="1" stop-color="#DE7700"/></linearGradient><linearGradient id="paint4_linear_1_197" x1="16.152" x2="38.83" y1="59.007" y2="36.328" gradientUnits="userSpaceOnUse"><stop stop-color="#0098DE"/><stop offset=".296" stop-color="#0098DE"/><stop offset=".694" stop-color="#4771DE"/><stop offset="1" stop-color="#8151DE"/></linearGradient><linearGradient id="paint5_linear_1_197" x1="5.725" x2="21.634" y1="20.07" y2="4.161" gradientUnits="userSpaceOnUse"><stop stop-color="#0098DE"/><stop offset=".296" stop-color="#0098DE"/><stop offset=".694" stop-color="#4771DE"/><stop offset="1" stop-color="#8151DE"/></linearGradient><clipPath id="clip0_1_197"><rect width="50" height="50" fill="#fff"/></clipPath></defs></svg>