<svg width="50" height="50" viewBox="0 0 50 50" fill="none" xmlns="http://www.w3.org/2000/svg">
<path d="M23.0105 6.50053L24.0941 8.53575C24.3378 8.91132 24.6017 9.24376 24.9125 9.55335C25.8239 10.4534 26.6735 11.414 27.4553 12.4285C29.2913 14.8393 30.5297 17.5166 31.4141 20.412C31.9445 22.1808 32.2325 23.9952 32.2541 25.83C32.3429 31.3151 30.4625 36.0251 26.6712 39.9394C26.0545 40.5601 25.3882 41.1296 24.6791 41.6422C24.3035 41.6422 24.1259 41.3542 23.9711 41.089C23.6892 40.5972 23.5015 40.0572 23.4178 39.4966C23.2846 38.833 23.1971 38.1694 23.2402 37.4842V37.1746C23.2097 37.1086 22.8786 6.6566 23.0105 6.50053V6.50053Z" fill="#599636"/>
<path d="M23.0106 6.43325C22.9661 6.34444 22.9217 6.41168 22.8773 6.45482C22.8989 6.89892 22.7441 7.29479 22.5018 7.67291C22.2353 8.04848 21.8826 8.33651 21.5286 8.64611C19.5619 10.3489 18.0139 12.4057 16.7742 14.7061C15.1247 17.802 14.2746 21.12 14.0335 24.6132C13.9231 25.8731 14.4319 30.3191 14.8291 31.6019C15.9127 35.0075 17.8591 37.8611 20.3803 40.3378C20.9994 40.9342 21.6618 41.4874 22.347 42.0191C22.5462 42.0191 22.5677 41.8414 22.6134 41.7095C22.7007 41.4271 22.7673 41.1387 22.8126 40.8467L23.2567 37.5299L23.0106 6.43325Z" fill="#6CAC48"/>
<path d="M24.0941 42.9897C24.1385 42.4822 24.3822 42.0609 24.6473 41.6409C24.3809 41.5306 24.1829 41.311 24.0281 41.0662C23.8947 40.8343 23.7842 40.5899 23.6982 40.3366C23.3886 39.4078 23.3227 38.4333 23.2338 37.4842V36.9095C23.1235 36.9983 23.1006 37.7494 23.1006 37.8611C23.0361 38.8642 22.9029 39.8617 22.7022 40.8467C22.6362 41.2451 22.5918 41.6422 22.3469 41.9962C22.3469 42.0406 22.3469 42.085 22.3685 42.151C22.7669 43.3234 22.876 44.5174 22.9433 45.7342V46.1783C22.9433 46.7087 22.9217 46.597 23.362 46.7747C23.5396 46.8406 23.7376 46.8635 23.9152 46.9954C24.0484 46.9954 24.07 46.885 24.07 46.7962L24.004 46.0666V44.0314C23.9825 43.6762 24.0484 43.3234 24.0929 42.991L24.0941 42.9897Z" fill="#C2BFBF"/>
</svg>
