<svg xmlns="http://www.w3.org/2000/svg" width="50" height="50" fill="none" viewBox="0 0 50 50"><g clip-path="url(#clip0_2_264)"><path fill="#8CC84B" d="M22.6568 0.634748C23.8912 -0.0718128 25.499 -0.0750042 26.7323 0.634748C32.9371 4.14078 39.1438 7.64132 45.3476 11.1495C46.5144 11.8067 47.2949 13.1053 47.283 14.4498V35.5435C47.2917 36.9437 46.4341 38.2733 45.2031 38.9156C39.0187 42.4024 32.8374 45.8933 26.6541 49.38C25.3942 50.1004 23.7541 50.0449 22.5335 49.2655C20.6794 48.1907 18.8222 47.1212 16.9679 46.0474C16.589 45.8215 16.1619 45.6417 15.8943 45.2743C16.1309 44.9556 16.5537 44.9158 16.8974 44.7767C17.6713 44.5306 18.3821 44.1355 19.0931 43.7522C19.2729 43.6291 19.4924 43.6763 19.6647 43.7864C21.2502 44.6954 22.8217 45.6309 24.4124 46.5313C24.7518 46.7272 25.0954 46.4671 25.3855 46.3054C31.4543 42.8754 37.5305 39.4584 43.5983 36.0273C43.8231 35.9192 43.9474 35.6805 43.9291 35.4343C43.9334 28.4759 43.9302 21.5163 43.9313 14.558C43.957 14.2786 43.7953 14.0216 43.5426 13.9073C37.3797 10.4365 31.2199 6.96047 25.058 3.48883C24.9512 3.41544 24.8248 3.37605 24.6952 3.37586C24.5657 3.37568 24.4391 3.41468 24.3321 3.48777C18.1702 6.96047 12.0115 10.4397 5.84964 13.9103C5.59787 14.0248 5.4289 14.2775 5.45886 14.558C5.45993 21.5163 5.45886 28.4759 5.45886 35.4353C5.44818 35.5555 5.47457 35.676 5.53449 35.7808C5.5944 35.8855 5.68496 35.9693 5.79397 36.021C7.4383 36.9534 9.08475 37.8793 10.7301 38.8086C11.6571 39.3075 12.7952 39.604 13.8165 39.2217C14.7177 38.8985 15.3495 37.9788 15.3323 37.0219C15.3408 30.1041 15.328 23.1853 15.3387 16.2686C15.3161 15.9615 15.6075 15.7078 15.906 15.7367C16.6961 15.7314 17.4872 15.7261 18.2773 15.7388C18.6071 15.7314 18.8341 16.0621 18.7933 16.3715C18.7901 23.333 18.8018 30.2947 18.788 37.2563C18.7901 39.1116 18.0279 41.1304 16.3117 42.0382C14.1975 43.1334 11.5844 42.9011 9.49575 41.8509C7.68759 40.9485 5.96206 39.8834 4.18599 38.9165C2.95177 38.2777 2.0984 36.9428 2.10709 35.5437V14.4498C2.09414 13.0775 2.90567 11.7553 4.10886 11.1076C10.2922 7.61809 16.4745 4.12589 22.6568 0.634748Z"/><path fill="#8CC84B" d="M28.0511 15.2465C30.7479 15.0729 33.6349 15.1436 36.0617 16.4722C37.9406 17.4902 38.9823 19.6269 39.0154 21.7143C38.963 21.9959 38.6686 22.1512 38.3998 22.1319C37.6174 22.1308 36.8348 22.1425 36.0523 22.1266C35.7204 22.1393 35.5275 21.8333 35.4858 21.5399C35.261 20.5411 34.7163 19.5519 33.7763 19.0702C32.3332 18.3477 30.6599 18.384 29.0864 18.3991C27.9376 18.4601 26.7023 18.5596 25.7291 19.2351C24.9819 19.7468 24.755 20.7798 25.0216 21.6117C25.2731 22.209 25.9626 22.4018 26.5268 22.5794C29.7768 23.4294 33.2208 23.3448 36.4087 24.4635C37.7286 24.9195 39.0197 25.806 39.4715 27.1879C40.0624 29.04 39.8034 31.2539 38.4856 32.7407C37.417 33.9643 35.8606 34.6303 34.3083 34.992C32.2433 35.4524 30.1002 35.4641 28.003 35.2597C26.031 35.0349 23.9789 34.5168 22.4566 33.1732C21.1548 32.0429 20.519 30.2817 20.5821 28.5819C20.5972 28.2948 20.883 28.0947 21.158 28.1182C21.9459 28.1118 22.7339 28.1097 23.5218 28.1193C23.8365 28.0968 24.0699 28.3688 24.086 28.6654C24.2314 29.617 24.589 30.6157 25.4188 31.1799C27.0202 32.2131 29.0296 32.1423 30.8633 32.1712C32.3825 32.1039 34.0878 32.0835 35.3275 31.0794C35.9816 30.5067 36.1754 29.5485 35.9986 28.7243C35.8071 28.0283 35.0791 27.704 34.4539 27.492C31.2456 26.4771 27.7631 26.8454 24.5858 25.6977C23.2959 25.2418 22.0486 24.3799 21.553 23.0548C20.8615 21.1792 21.1784 18.8594 22.6342 17.4227C24.0537 15.9936 26.1028 15.4433 28.0511 15.2463V15.2465Z"/></g><defs><clipPath id="clip0_2_264"><rect width="45.4" height="50" fill="#fff" transform="translate(2)"/></clipPath></defs></svg>