<svg width="50" height="50" viewBox="0 0 50 50" fill="none" xmlns="http://www.w3.org/2000/svg">
<g clip-path="url(#clip0_1_130)">
<path d="M25 38.0273C38.8071 38.0273 50 32.2009 50 25.0137C50 17.8264 38.8071 12 25 12C11.1929 12 0 17.8264 0 25.0137C0 32.2009 11.1929 38.0273 25 38.0273Z" fill="#8993BE"/>
<path fill-rule="evenodd" clip-rule="evenodd" d="M7.02051 32.7191L9.76035 18.8492H16.0957C18.8354 19.0205 20.2053 20.3902 20.2053 22.7877C20.2053 26.8972 16.952 29.2945 14.0408 29.1232H10.959L10.274 32.7191H7.02051ZM11.6438 26.5548L12.5 21.4177H14.726C15.9246 21.4177 16.7807 21.9314 16.7807 22.9588C16.6096 25.8699 15.2396 26.3835 13.6986 26.5548H11.6439H11.6438ZM19.5688 29.1232L22.3084 15.2535H25.5619L24.877 18.8492H27.959C30.6988 19.0205 31.7262 20.3902 31.3838 22.1027L30.1852 29.1232H26.7605L27.9592 22.7877C28.1303 21.9314 28.1303 21.4177 26.9318 21.4177H24.3633L22.8223 29.1232H19.5688V29.1232ZM29.9658 32.7191L32.7055 18.8492H39.041C41.7809 19.0205 43.1508 20.3902 43.1508 22.7877C43.1508 26.8972 39.8973 29.2945 36.9863 29.1232H33.9041L33.2191 32.7191H29.9658V32.7191ZM34.5889 26.5548L35.4451 21.4177H37.6713C38.8699 21.4177 39.726 21.9314 39.726 22.9588C39.5549 25.8699 38.185 26.3835 36.6439 26.5548H34.5891H34.5889Z" fill="#232531"/>
</g>
<defs>
<clipPath id="clip0_1_130">
<rect width="50" height="26.18" fill="white" transform="translate(0 12)"/>
</clipPath>
</defs>
</svg>
