<svg xmlns="http://www.w3.org/2000/svg" width="50" height="50" fill="none" viewBox="0 0 50 50"><g clip-path="url(#clip0_2_268)"><path fill="#CF649A" d="M43.0273 27.5429C41.2792 27.5528 39.7656 27.9726 38.496 28.5977C38.0273 27.67 37.5585 26.8593 37.4805 26.254C37.3926 25.5508 37.2852 25.1211 37.3926 24.2813C37.5 23.4414 37.9882 22.25 37.9882 22.1523C37.9784 22.0644 37.8807 21.6347 36.875 21.625C35.8692 21.6152 35 21.8203 34.9023 22.084C34.8046 22.3476 34.6093 22.9531 34.4824 23.5781C34.3066 24.4961 32.4707 27.748 31.4257 29.457C31.0839 28.7929 30.791 28.207 30.7323 27.7381C30.6445 27.0351 30.537 26.6053 30.6445 25.7656C30.7519 24.9256 31.2402 23.7343 31.2402 23.6367C31.2304 23.5488 31.1328 23.1191 30.127 23.1093C29.1211 23.0996 28.252 23.3047 28.1544 23.5683C28.0567 23.832 27.9493 24.457 27.7344 25.0625C27.5293 25.6679 25.0879 31.0976 24.4531 32.5136C24.1308 33.2363 23.8477 33.8124 23.6425 34.2031C23.4375 34.5937 23.6328 34.2324 23.6133 34.2714C23.4375 34.6035 23.3398 34.789 23.3398 34.789V34.7989C23.2031 35.043 23.0566 35.2773 22.9882 35.2773C22.9393 35.2773 22.8417 34.623 23.0077 33.7247C23.369 31.8398 24.2479 28.9004 24.2383 28.793C24.2383 28.7442 24.4042 28.2265 23.6717 27.9629C22.9589 27.6993 22.7051 28.1387 22.6464 28.1387C22.5878 28.1387 22.5389 28.295 22.5389 28.295C22.5389 28.295 23.33 24.9845 21.0253 24.9845C19.58 24.9845 17.5878 26.5568 16.6014 27.9923C15.9764 28.3341 14.6483 29.0567 13.2421 29.8283C12.705 30.1212 12.1483 30.4337 11.621 30.7169L11.5137 30.5996C8.72069 27.621 3.55469 25.5117 3.76953 21.5078C3.84765 20.0527 4.35547 16.2148 13.6915 11.5664C21.338 7.75781 27.461 8.80273 28.5254 11.1269C30.039 14.4472 25.2539 20.6191 17.3048 21.5078C14.2774 21.8496 12.6855 20.6777 12.2852 20.2383C11.8653 19.7793 11.8067 19.7597 11.6505 19.8476C11.3966 19.9843 11.5528 20.3945 11.6505 20.6386C11.8849 21.2539 12.8614 22.3476 14.5216 22.8945C15.9765 23.373 19.5313 23.6367 23.8282 21.9765C28.6426 20.1113 32.4024 14.9355 31.2989 10.6094C30.1758 6.20508 22.8712 4.75977 15.9669 7.21094C11.8555 8.67578 7.40234 10.9609 4.19922 13.959C0.390628 17.5136 -0.21484 20.6191 0.0390663 21.9082C0.927835 26.5078 7.26562 29.5058 9.80468 31.7226C9.67772 31.7909 9.56054 31.8592 9.45312 31.9179C8.18359 32.5428 3.34961 35.0722 2.13867 37.7479C0.771487 40.7752 2.35352 42.9531 3.4082 43.246C6.66992 44.1542 10.0098 42.5234 11.8164 39.8378C13.6132 37.1523 13.3984 33.666 12.5683 32.0742L12.539 32.0156L13.535 31.4296C14.1797 31.0488 14.8144 30.6972 15.371 30.3944C15.0586 31.244 14.8339 32.2499 14.7168 33.7147C14.5801 35.4335 15.2832 37.66 16.2109 38.5389C16.6211 38.9197 17.1094 38.9295 17.4121 38.9295C18.4863 38.9295 18.9746 38.0408 19.5117 36.9764C20.1758 35.6776 20.7617 34.1737 20.7617 34.1737C20.7617 34.1737 20.0293 38.2459 22.0312 38.2459C22.7636 38.2459 23.4961 37.2987 23.8281 36.8104V36.8202C23.8281 36.8202 23.8476 36.7909 23.8867 36.7225C23.9277 36.6619 23.9667 36.6001 24.0039 36.5371V36.5175C24.2968 36.0097 24.9511 34.8476 25.9277 32.9238C27.1874 30.4433 28.3984 27.3378 28.3984 27.3378C28.3984 27.3378 28.5156 28.0996 28.8769 29.3496C29.0917 30.0918 29.5604 30.9023 29.9217 31.6933C29.6288 32.1035 29.453 32.3379 29.453 32.3379L29.4628 32.3477C29.2285 32.6602 28.9647 32.9923 28.6914 33.3243C27.6953 34.5157 26.5039 35.8732 26.3476 36.2638C26.1621 36.7227 26.2011 37.0645 26.5625 37.338C26.8261 37.5333 27.2949 37.5723 27.7929 37.5333C28.6914 37.4746 29.3164 37.2501 29.6289 37.1133C30.1171 36.9375 30.6738 36.6739 31.2109 36.2832C32.1875 35.5607 32.7832 34.5353 32.7246 33.1681C32.6953 32.4162 32.4511 31.674 32.1484 30.9708C32.2363 30.8439 32.3243 30.7168 32.4121 30.5802C33.955 28.3243 35.1464 25.8439 35.1464 25.8439C35.1464 25.8439 35.2636 26.6056 35.625 27.8556C35.8104 28.4904 36.1816 29.1838 36.5136 29.8674C35.0683 31.0491 34.1601 32.4163 33.8476 33.3147C33.2714 34.9748 33.7207 35.7268 34.5703 35.9026C34.951 35.9807 35.498 35.8049 35.9081 35.6291C36.4159 35.4631 37.0311 35.1798 37.5976 34.76C38.5742 34.0373 39.5117 33.0315 39.4628 31.6741C39.4335 31.0491 39.2675 30.4338 39.0429 29.8479C40.2734 29.3401 41.8651 29.0471 43.8867 29.2913C48.2324 29.7991 49.0917 32.5139 48.9258 33.6467C48.7598 34.7796 47.8516 35.4045 47.5488 35.5998C47.246 35.7854 47.1484 35.8538 47.1777 35.9905C47.2167 36.1956 47.3535 36.1858 47.6171 36.1468C47.9785 36.0881 49.9023 35.2191 49.9804 33.1293C50.0976 30.4434 47.5488 27.5137 43.0273 27.5429V27.5429ZM9.51171 38.8417C8.07616 40.414 6.05468 41.0097 5.19531 40.5019C4.26758 39.9648 4.62881 37.6503 6.39648 35.9804C7.4707 34.9648 8.86718 34.0273 9.78515 33.4511C9.99022 33.3242 10.3027 33.1387 10.6738 32.914C10.7324 32.875 10.7715 32.8554 10.7715 32.8554C10.8398 32.8164 10.918 32.7675 10.9961 32.7187C11.6504 35.1015 11.0254 37.1913 9.51171 38.8417V38.8417ZM20.0097 31.7031C19.5117 32.9238 18.457 36.0585 17.8222 35.8828C17.2753 35.7363 16.9433 33.3632 17.7147 31.0195C18.1053 29.8377 18.9354 28.4316 19.4237 27.8846C20.2148 27.0057 21.0741 26.7128 21.289 27.0741C21.5429 27.5429 20.3222 30.9414 20.0097 31.7031ZM28.6718 35.8437C28.457 35.9512 28.2617 36.0292 28.1738 35.9707C28.1054 35.9317 28.2616 35.7852 28.2616 35.7852C28.2616 35.7852 29.3456 34.6231 29.7753 34.086C30.0194 33.7736 30.3124 33.4123 30.6249 33.002V33.1192C30.625 34.5253 29.2773 35.4628 28.6718 35.8437ZM35.3514 34.3203C35.1952 34.2031 35.2148 33.8417 35.742 32.7089C35.9472 32.2597 36.4159 31.5078 37.2264 30.7949C37.3241 31.0878 37.3828 31.3709 37.3729 31.6347C37.3632 33.3925 36.1132 34.0468 35.3514 34.3203Z"/></g><defs><clipPath id="clip0_2_268"><rect width="50" height="37.5" fill="#fff" transform="translate(0 6)"/></clipPath></defs></svg>