<svg xmlns="http://www.w3.org/2000/svg" width="50" height="50" fill="none" viewBox="0 0 50 50"><g clip-path="url(#clip0_2_272)"><path fill="#06B6D4" d="M25.0001 10C18.3358 10 14.1709 13.3312 12.5047 19.9929C15.004 16.6617 17.9196 15.413 21.2514 16.2455C23.1526 16.7205 24.5113 18.0998 26.0157 19.626C28.4656 22.1122 31.3012 24.9897 37.4955 24.9897C44.1591 24.9897 48.3247 21.6585 49.9903 14.9961C47.4915 18.3273 44.576 19.5767 41.2435 18.7442C39.3429 18.2692 37.9842 16.8899 36.4799 15.3636C34.0299 12.8774 31.1937 10 25.0001 10V10ZM12.5047 24.9897C5.84105 24.9897 1.6755 28.3209 0.00990295 34.9832C2.50861 31.652 5.42418 30.4027 8.75662 31.2358C10.6572 31.7114 12.0159 33.0901 13.5203 34.6157C15.9702 37.1019 18.8064 39.98 25.0001 39.98C31.6643 39.98 35.8293 36.6488 37.4955 29.9864C34.9961 33.3176 32.0806 34.567 28.7488 33.7339C26.8475 33.2595 25.4888 31.8795 23.9845 30.3539C21.5345 27.8677 18.6989 24.9897 12.5047 24.9897V24.9897Z"/></g><defs><clipPath id="clip0_2_272"><rect width="50" height="29.98" fill="#fff" transform="translate(0 10)"/></clipPath></defs></svg>