<svg xmlns="http://www.w3.org/2000/svg" width="50" height="50" fill="none" viewBox="0 0 50 50"><g clip-path="url(#clip0_2_273)"><path fill="#00749A" d="M3.55378 24.9994C3.55378 33.4888 8.48713 40.8246 15.6409 44.3015L5.41057 16.2712C4.18419 19.0175 3.55146 21.9917 3.55378 24.9994V24.9994ZM39.4784 23.9171C39.4784 21.2666 38.5264 19.431 37.7098 18.0023C36.6226 16.2357 35.6041 14.7397 35.6041 12.9731C35.6041 11.0016 37.0989 9.16643 39.205 9.16643C39.3001 9.16643 39.3903 9.17827 39.4833 9.18357C35.6673 5.6879 30.5838 3.55361 25.0003 3.55361C17.5079 3.55361 10.9161 7.39779 7.08128 13.2204C7.58445 13.2355 8.05905 13.2457 8.46142 13.2457C10.7047 13.2457 14.1771 12.9735 14.1771 12.9735C15.3332 12.9053 15.4695 14.6034 14.315 14.7401C14.315 14.7401 13.1528 14.8768 11.86 14.9445L19.6699 38.1749L24.3637 24.0987L21.0219 14.9441C19.867 14.8764 18.773 14.7397 18.773 14.7397C17.6172 14.6719 17.7527 12.9049 18.9084 12.9731C18.9084 12.9731 22.4502 13.2453 24.5576 13.2453C26.8004 13.2453 30.2732 12.9731 30.2732 12.9731C31.4302 12.9049 31.566 14.603 30.4108 14.7397C30.4108 14.7397 29.2465 14.8764 27.9561 14.9441L35.7065 37.9986L37.8453 30.8501C38.7729 27.8837 39.4784 25.7531 39.4784 23.9171V23.9171Z"/><path fill="#00749A" d="M25.3766 26.8753L18.9419 45.573C20.9092 46.1528 22.9495 46.4472 25.0004 46.4471C27.4979 46.4471 29.8929 46.015 32.1223 45.2315C32.0625 45.1378 32.0114 45.0389 31.9697 44.936L25.3766 26.8753ZM43.8189 14.7099C43.9111 15.393 43.9634 16.1268 43.9634 16.9152C43.9634 19.0915 43.5569 21.538 42.3327 24.597L35.7816 43.5375C42.1576 39.8194 46.4462 32.9118 46.4462 24.9994C46.4519 21.4029 45.5481 17.8634 43.8189 14.7099V14.7099Z"/><path fill="#00749A" d="M25.0005 0C11.2157 0 0.000183105 11.2146 0.000183105 24.9994C0.000183105 38.7857 11.2153 50.0004 25.0005 50.0004C38.7848 50.0004 50.002 38.7861 50.002 24.9994C50.0015 11.2146 38.7848 0 25.0005 0ZM25.0005 48.854C11.8478 48.854 1.1465 38.1528 1.1465 24.9994C1.1465 11.8472 11.8474 1.14672 25.0005 1.14672C38.1527 1.14672 48.8532 11.8472 48.8532 24.9994C48.8532 38.1528 38.1523 48.854 25.0005 48.854Z"/></g><defs><clipPath id="clip0_2_273"><rect width="50" height="50" fill="#fff"/></clipPath></defs></svg>