<svg xmlns="http://www.w3.org/2000/svg" xmlns:xlink="http://www.w3.org/1999/xlink" width="100%" height="100%" version="1.1" viewBox="0 0 740 240" xml:space="preserve" style="fill-rule:evenodd;clip-rule:evenodd;stroke-linejoin:round;stroke-miterlimit:2"><path d="M500.026,117.5c1.331,-65.076 54.579,-117.5 119.974,-117.5c65.395,0 118.643,52.424 119.974,117.5l0.026,-0l0,5l-0.026,-0c-1.331,65.076 -54.579,117.5 -119.974,117.5c-65.395,0 -118.643,-52.424 -119.974,-117.5l-189.975,-0c1.313,31.958 27.672,57.5 59.949,57.5c15.913,0 31.174,-6.321 42.426,-17.574l42.427,42.427c-22.505,22.504 -53.027,35.147 -84.853,35.147c-65.395,0 -118.643,-52.424 -119.974,-117.5l-10.052,-0c-1.331,65.076 -54.579,117.5 -119.974,117.5c-65.439,-0 -118.644,-52.38 -119.974,-117.5l-0.026,-0l0,-5l179.949,-0c-1.313,-31.958 -27.672,-57.5 -59.949,-57.5c-15.913,0 -31.174,6.321 -42.426,17.574l-42.427,-42.427c22.505,-22.504 53.027,-35.147 84.853,-35.147c65.395,0 118.643,52.424 119.974,117.5l10.052,-0c1.331,-65.076 54.579,-117.5 119.974,-117.5c65.439,0 118.644,52.38 119.974,117.5l10.052,-0Zm-320.077,5l-119.898,-0c1.312,31.979 27.65,57.5 59.949,57.5c32.277,0 58.636,-25.542 59.949,-57.5Zm500,-0c-1.313,31.958 -27.672,57.5 -59.949,57.5c-32.277,0 -58.636,-25.542 -59.949,-57.5l119.898,-0Zm-0,-5l-119.898,-0c1.313,-31.958 27.672,-57.5 59.949,-57.5c32.277,0 58.636,25.542 59.949,57.5Zm-250,-0c-1.312,-31.979 -27.65,-57.5 -59.949,-57.5c-32.277,0 -58.636,25.542 -59.949,57.5l119.898,-0Z" style="fill:#f2f2f2"/></svg>