<svg width="394" height="128" viewBox="0 0 394 128" fill="none" xmlns="http://www.w3.org/2000/svg">
<path fill-rule="evenodd" clip-rule="evenodd" d="M57.7269 0.308217C42.9915 1.75953 29.2151 8.27526 18.7452 18.7452L41.3726 41.3726C46.6076 36.1377 53.4957 32.8798 60.8635 32.1541C68.2312 31.4285 75.6226 33.2799 81.7783 37.393C87.9339 41.5061 92.473 47.6263 94.6221 54.7109C95.4442 57.4212 95.8971 60.2084 95.9844 63H0V65H0.007809C0.233477 79.4518 5.34564 93.4133 14.5273 104.601C23.9206 116.047 36.992 123.882 51.5142 126.77C66.0365 129.659 81.111 127.423 94.1694 120.443C107.228 113.463 117.462 102.171 123.128 88.4918C126.239 80.9827 127.867 73.0091 127.992 65H133.008C133.1 70.9171 134.013 76.8341 135.756 82.5783C140.054 96.7474 149.132 108.988 161.444 117.214C173.755 125.44 188.538 129.143 203.273 127.692C218.009 126.241 231.785 119.725 242.255 109.255L219.627 86.6275C214.392 91.8624 207.504 95.1203 200.137 95.846C192.769 96.5716 185.377 94.7202 179.222 90.6071C173.066 86.494 168.527 80.3737 166.378 73.2892C165.556 70.5789 165.103 67.7916 165.016 65H261V63H260.992C260.767 48.5482 255.654 34.5868 246.473 23.3989C237.079 11.9531 224.008 4.11843 209.486 1.22978C194.964 -1.65886 179.889 0.577239 166.831 7.55709C153.772 14.5369 143.538 25.8287 137.872 39.5083C134.761 47.0174 133.133 54.9909 133.008 63H127.992C127.9 57.0829 126.987 51.1659 125.244 45.4218C120.946 31.2527 111.868 19.0122 99.5565 10.786C87.2451 2.5598 72.4623 -1.1431 57.7269 0.308217ZM165.016 63H228.984C228.764 55.9526 226.221 49.1643 221.736 43.6995C217.04 37.9766 210.504 34.0592 203.243 32.6149C195.982 31.1706 188.444 32.2886 181.915 35.7786C175.386 39.2685 170.269 44.9144 167.436 51.7542C165.945 55.3524 165.136 59.1639 165.016 63ZM95.9844 65H32.0156C32.2358 72.0474 34.7788 78.8358 39.2637 84.3006C43.9603 90.0235 50.496 93.9408 57.7571 95.3852C65.0182 96.8295 72.5555 95.7114 79.0847 92.2215C85.6139 88.7316 90.731 83.0857 93.5641 76.2459C95.0546 72.6476 95.8644 68.8361 95.9844 65Z" fill="white"/>
<path fill-rule="evenodd" clip-rule="evenodd" d="M330 128C365.346 128 394 99.3463 394 64C394 28.6538 365.346 4.39963e-05 330 4.39963e-05C294.654 4.39963e-05 266 28.6538 266 64C266 99.3463 294.654 128 330 128ZM330 96C312.327 96 298 81.6732 298 64C298 46.3269 312.327 32 330 32C347.673 32 362 46.3269 362 64C362 81.6732 347.673 96 330 96Z" fill="white"/>
</svg>
