<?xml version="1.0" standalone="no"?>
<!DOCTYPE svg PUBLIC "-//W3C//DTD SVG 20010904//EN"
 "http://www.w3.org/TR/2001/REC-SVG-20010904/DTD/svg10.dtd">
<svg version="1.0" xmlns="http://www.w3.org/2000/svg"
 width="700.000000pt" height="700.000000pt" viewBox="0 0 700.000000 700.000000"
 preserveAspectRatio="xMidYMid meet">
<metadata>
Created by potrace 1.14, written by Peter Selinger 2001-2017
</metadata>
<g transform="translate(0.000000,700.000000) scale(0.100000,-0.100000)"
fill="#000000" stroke="none">
<path d="M1565 4356 c-92 -21 -193 -63 -270 -111 -75 -47 -155 -111 -155 -125
0 -5 67 -77 149 -161 l149 -153 38 34 c47 41 122 75 203 91 167 32 362 -61
451 -216 30 -53 65 -178 55 -195 -4 -6 -255 -10 -659 -10 l-653 0 4 -52 c17
-225 94 -404 241 -560 115 -122 288 -219 450 -254 88 -18 273 -18 362 1 363
76 655 398 687 757 l8 83 32 3 c29 3 32 1 37 -30 28 -204 49 -274 118 -396 30
-54 73 -107 143 -177 115 -115 197 -166 345 -216 84 -28 112 -33 232 -37 117
-4 152 -1 232 17 140 33 331 133 400 210 l20 22 -153 153 -154 154 -46 -35
c-247 -189 -606 -62 -686 242 -8 33 -15 67 -15 77 0 17 32 18 655 18 l655 0 0
55 c0 176 -89 390 -224 541 -115 128 -280 225 -452 265 -80 18 -115 21 -232
17 -120 -4 -148 -9 -232 -37 -132 -44 -229 -102 -327 -195 -167 -157 -247
-325 -279 -579 -5 -47 -6 -48 -37 -45 -32 3 -32 3 -38 73 -32 340 -267 634
-597 745 -90 31 -108 33 -247 36 -102 3 -169 -1 -210 -10z m2087 -427 c134
-28 244 -114 305 -235 24 -49 38 -94 41 -129 l4 -55 -436 0 c-496 0 -448 -11
-421 95 59 227 284 371 507 324z m-1468 -447 c3 -5 -1 -39 -9 -77 -36 -171
-182 -306 -363 -336 -223 -37 -443 120 -491 349 -6 30 -9 58 -5 63 7 11 861
12 868 1z"/>
<path d="M5177 4349 c-307 -75 -554 -320 -638 -634 -17 -63 -22 -108 -22 -215
0 -107 5 -152 22 -215 75 -281 278 -506 543 -605 156 -57 356 -68 520 -26 302
77 531 298 625 603 24 79 27 103 27 243 0 140 -3 164 -27 243 -94 305 -323
526 -625 603 -122 31 -306 33 -425 3z m284 -419 c139 -26 261 -120 323 -250
29 -61 31 -72 31 -180 0 -109 -2 -119 -32 -183 -82 -173 -279 -279 -461 -249
-145 24 -267 117 -331 251 -34 72 -36 81 -36 181 0 100 2 109 36 181 45 93
115 166 201 208 96 47 173 59 269 41z"/>
</g>
</svg>
