<?xml version="1.0" standalone="no"?>
<!DOCTYPE svg PUBLIC "-//W3C//DTD SVG 20010904//EN"
 "http://www.w3.org/TR/2001/REC-SVG-20010904/DTD/svg10.dtd">
<svg version="1.0" xmlns="http://www.w3.org/2000/svg"
 width="700.000000pt" height="700.000000pt" viewBox="0 0 700.000000 700.000000"
 preserveAspectRatio="xMidYMid meet">
<metadata>
Created by potrace 1.14, written by Peter Selinger 2001-2017
</metadata>
<g transform="translate(0.000000,700.000000) scale(0.100000,-0.100000)"
fill="#000000" stroke="none">
<path d="M2995 6113 c-11 -11 -43 -18 -96 -23 -59 -5 -85 -12 -102 -27 -15
-15 -43 -23 -90 -28 -55 -5 -73 -12 -90 -31 -17 -20 -30 -24 -74 -24 -58 0
-93 -13 -93 -34 0 -8 -17 -16 -41 -20 -24 -4 -50 -16 -63 -31 -13 -14 -33 -25
-44 -25 -11 0 -33 -11 -49 -24 -16 -14 -41 -28 -54 -31 -14 -3 -38 -17 -54
-31 -15 -13 -39 -24 -51 -24 -14 0 -30 -10 -40 -25 -9 -14 -22 -25 -30 -25
-24 0 -64 -23 -64 -37 0 -7 -11 -18 -25 -23 -14 -5 -28 -17 -31 -25 -4 -9 -19
-22 -35 -31 -16 -8 -29 -21 -29 -29 0 -8 -11 -17 -25 -21 -14 -3 -30 -15 -35
-25 -6 -10 -32 -28 -58 -41 -26 -12 -50 -24 -53 -25 -4 -2 -9 5 -12 17 -3 12
-13 20 -26 20 -14 0 -21 6 -21 20 0 12 -10 25 -24 31 -13 6 -29 22 -35 35 -6
14 -19 24 -31 24 -13 0 -20 7 -20 20 0 12 -10 25 -24 31 -13 6 -29 22 -35 35
-6 14 -19 24 -31 24 -13 0 -20 7 -20 20 0 12 -10 25 -24 31 -13 6 -29 22 -35
35 -6 14 -19 24 -31 24 -13 0 -20 7 -20 20 0 12 -10 25 -24 31 -13 6 -29 22
-35 35 -6 14 -19 24 -31 24 -14 0 -20 7 -20 21 0 12 -8 23 -20 26 -10 3 -26
16 -35 29 -24 37 -73 33 -113 -9 -40 -42 -44 -89 -8 -112 13 -9 26 -25 29 -35
3 -12 14 -20 25 -20 13 0 22 -9 26 -24 3 -14 14 -27 25 -31 10 -3 23 -17 29
-30 7 -15 20 -25 32 -25 13 0 20 -7 20 -20 0 -12 10 -25 24 -31 13 -6 29 -22
35 -35 6 -14 19 -24 31 -24 13 0 20 -7 20 -20 0 -12 10 -25 24 -31 13 -6 29
-22 35 -35 6 -14 19 -24 31 -24 13 0 20 -7 20 -20 0 -12 10 -25 24 -31 13 -6
29 -22 35 -35 6 -14 19 -24 31 -24 13 0 20 -7 20 -20 0 -13 10 -24 25 -30 25
-9 25 -11 10 -39 -8 -16 -19 -33 -25 -36 -5 -3 -10 -14 -10 -24 0 -10 -9 -21
-20 -24 -11 -3 -23 -13 -27 -24 -4 -10 -18 -30 -32 -44 -40 -40 -115 -129
-128 -152 -7 -12 -12 -29 -13 -38 0 -9 -9 -19 -19 -22 -13 -3 -24 -20 -31 -48
-7 -24 -20 -49 -30 -56 -10 -7 -21 -28 -24 -46 -3 -19 -17 -44 -31 -57 -14
-13 -25 -33 -25 -45 0 -12 -9 -30 -20 -40 -10 -9 -24 -34 -31 -54 -6 -20 -20
-45 -30 -57 -13 -13 -22 -45 -28 -88 -4 -37 -12 -71 -18 -74 -18 -12 -30 -46
-38 -107 -4 -38 -14 -68 -27 -81 -14 -16 -22 -44 -28 -105 -4 -46 -16 -102
-25 -124 -13 -29 -20 -85 -26 -205 -4 -91 -8 -166 -8 -167 -1 -2 -142 -3 -315
-3 l-314 0 -7 -40 c-4 -22 -4 -58 0 -80 l7 -40 313 0 313 0 7 -185 c6 -157 11
-191 27 -223 12 -21 23 -70 28 -115 5 -57 13 -84 27 -100 14 -15 23 -43 28
-88 5 -52 12 -72 31 -90 20 -18 24 -32 24 -76 0 -59 13 -93 34 -93 9 0 16 -17
21 -45 4 -32 13 -50 31 -61 13 -9 24 -25 24 -36 0 -24 18 -60 36 -71 7 -4 15
-20 19 -36 3 -15 15 -38 27 -51 12 -12 24 -36 27 -54 4 -18 15 -35 28 -40 14
-7 23 -23 27 -48 5 -28 13 -42 30 -50 14 -6 27 -21 30 -34 4 -13 13 -24 21
-24 8 0 21 -13 30 -30 9 -16 22 -30 30 -30 8 0 17 -11 21 -25 3 -14 15 -30 25
-36 11 -5 25 -25 33 -44 8 -18 24 -38 35 -45 12 -6 21 -16 21 -22 0 -10 50
-61 129 -130 17 -16 38 -28 46 -28 8 0 22 -11 31 -25 9 -14 27 -28 39 -31 13
-3 25 -14 28 -25 3 -10 17 -23 31 -29 14 -5 26 -16 26 -25 0 -8 12 -18 26 -21
14 -4 29 -17 34 -30 7 -17 20 -25 49 -30 28 -4 42 -13 50 -30 7 -15 19 -24 34
-24 13 0 37 -11 53 -25 16 -14 40 -28 54 -31 14 -4 30 -12 35 -19 15 -17 51
-35 73 -35 11 0 27 -11 36 -24 11 -18 29 -27 61 -31 28 -5 45 -12 45 -21 0
-21 34 -34 93 -34 44 0 58 -4 76 -24 18 -19 38 -26 90 -31 45 -5 73 -14 88
-28 17 -15 43 -22 104 -27 52 -5 84 -12 90 -21 12 -21 1006 -21 1018 0 6 9 38
16 90 21 61 5 87 12 104 27 15 14 43 23 88 28 52 5 72 12 90 31 18 20 32 24
76 24 59 0 93 13 93 34 0 9 17 16 45 21 32 4 50 13 61 31 9 13 25 24 36 24 22
0 58 18 73 35 6 7 21 15 35 18 14 4 36 16 49 28 13 12 37 25 55 28 18 4 35 15
40 28 7 14 23 23 48 27 28 5 42 13 50 30 6 14 21 27 34 30 13 4 24 13 24 21 0
8 14 21 30 30 17 9 30 22 30 29 0 8 14 19 30 25 17 5 30 15 30 20 0 8 53 41
111 69 4 1 9 -6 12 -18 3 -11 13 -20 25 -20 13 0 22 -9 26 -24 3 -14 15 -28
27 -31 11 -4 24 -18 29 -31 6 -14 18 -24 29 -24 12 0 21 -9 25 -24 3 -14 14
-27 25 -31 10 -3 23 -17 29 -30 7 -15 20 -25 32 -25 13 0 20 -7 20 -20 0 -12
10 -25 24 -31 13 -6 29 -22 35 -35 6 -14 19 -24 31 -24 13 0 20 -7 20 -20 0
-12 10 -25 24 -31 13 -6 29 -22 35 -35 6 -14 19 -24 31 -24 13 0 20 -7 20 -20
0 -11 8 -23 18 -27 9 -3 26 -17 38 -31 30 -36 68 -32 111 11 43 43 47 81 11
111 -14 12 -28 29 -31 38 -4 10 -15 18 -26 18 -12 0 -21 9 -25 24 -3 14 -14
27 -25 31 -10 3 -23 17 -29 30 -7 15 -20 25 -32 25 -13 0 -20 7 -20 20 0 12
-10 25 -24 31 -13 6 -29 22 -35 35 -6 14 -19 24 -31 24 -13 0 -20 7 -20 20 0
12 -10 25 -25 32 -13 6 -27 19 -30 29 -4 11 -17 22 -31 25 -15 4 -24 13 -24
25 0 11 -10 23 -24 29 -13 5 -27 18 -31 29 -3 12 -17 24 -31 27 -15 4 -24 13
-24 25 0 12 -10 23 -25 29 -25 9 -25 11 -10 39 8 16 19 33 25 36 5 3 10 14 10
24 0 10 9 21 20 24 11 3 23 13 27 24 4 10 18 30 32 44 14 15 32 33 38 40 7 8
17 19 23 24 32 31 80 103 80 121 0 13 8 24 19 27 13 3 24 20 31 48 7 24 20 49
31 57 10 7 21 28 25 46 3 19 17 44 30 57 13 12 24 30 24 40 0 10 11 30 23 46
13 15 27 42 31 58 4 17 17 40 28 52 14 15 23 42 27 88 4 37 12 70 18 73 18 12
30 46 38 107 4 38 14 68 27 81 14 16 22 44 28 105 4 46 16 102 25 124 12 28
20 86 26 200 4 88 8 163 9 168 0 4 141 7 314 7 l314 0 7 40 c4 22 4 58 0 80
l-7 40 -314 0 -314 0 -1 83 c-1 170 -15 306 -34 327 -13 14 -20 45 -25 105 -5
66 -12 90 -27 108 -14 15 -23 42 -28 88 -5 52 -12 72 -31 90 -20 18 -24 32
-24 76 0 59 -13 93 -34 93 -9 0 -16 17 -21 45 -4 32 -13 50 -31 61 -13 9 -24
25 -24 36 0 24 -19 60 -36 71 -8 4 -14 16 -14 26 0 10 -13 35 -30 56 -16 21
-30 48 -30 62 0 15 -8 27 -24 34 -17 8 -26 22 -30 50 -5 29 -13 43 -30 51 -14
6 -27 21 -30 34 -4 13 -13 24 -21 24 -9 0 -20 12 -25 26 -6 14 -19 28 -30 31
-11 3 -23 16 -26 29 -4 14 -15 29 -25 35 -11 5 -25 25 -33 44 -8 18 -24 38
-35 45 -12 6 -21 15 -21 21 0 14 -85 99 -99 99 -6 0 -15 9 -21 21 -7 11 -27
27 -45 35 -19 8 -39 22 -44 33 -6 10 -22 22 -36 25 -14 4 -25 13 -25 21 0 8
-13 21 -29 29 -16 9 -31 22 -35 31 -3 8 -17 20 -31 25 -14 5 -25 16 -25 23 0
15 -41 37 -68 37 -10 0 -22 10 -27 22 -6 14 -23 25 -41 29 -18 3 -42 15 -54
27 -13 12 -36 24 -51 27 -16 4 -32 12 -36 19 -11 18 -47 36 -71 36 -11 0 -27
11 -36 24 -11 18 -29 27 -61 31 -28 5 -45 12 -45 21 0 21 -34 34 -93 34 -44 0
-58 4 -76 24 -18 19 -38 26 -90 31 -45 5 -73 14 -88 28 -17 15 -43 22 -102 27
-53 5 -85 12 -96 23 -15 15 -64 17 -505 17 -441 0 -490 -2 -505 -17z m-1265
-968 c5 -14 16 -25 25 -25 8 0 21 -11 27 -25 6 -13 20 -27 30 -31 11 -3 23
-17 28 -30 6 -14 18 -24 29 -24 12 0 21 -9 25 -24 3 -14 15 -28 27 -31 11 -4
24 -18 29 -31 6 -14 18 -24 29 -24 12 0 21 -9 25 -24 3 -14 14 -27 25 -31 10
-3 23 -17 29 -30 7 -15 20 -25 32 -25 13 0 20 -7 20 -20 0 -12 10 -25 24 -31
13 -6 29 -22 35 -35 6 -14 19 -24 31 -24 13 0 20 -7 20 -20 0 -12 10 -25 24
-31 13 -6 29 -22 35 -35 6 -14 19 -24 31 -24 14 0 20 -7 20 -21 0 -13 8 -23
21 -26 31 -8 49 -58 35 -94 -6 -16 -18 -32 -28 -35 -10 -3 -21 -16 -24 -29 -3
-13 -14 -27 -25 -30 -11 -4 -24 -23 -31 -46 -6 -22 -19 -46 -29 -53 -10 -6
-21 -25 -25 -41 -4 -17 -18 -43 -31 -58 -12 -16 -23 -38 -23 -50 0 -12 -11
-39 -25 -59 -17 -25 -26 -56 -31 -104 -6 -52 -12 -72 -28 -85 -19 -15 -21 -30
-24 -138 l-4 -121 -513 0 -514 0 10 33 c5 17 12 115 15 217 6 163 9 187 26
206 12 13 23 47 29 88 5 39 18 78 30 95 12 17 22 50 26 87 4 35 14 70 26 85
10 15 23 48 28 74 5 29 17 54 29 62 10 7 22 30 26 51 4 20 17 44 29 54 13 10
26 33 29 53 4 19 15 39 26 45 10 5 22 24 25 42 4 18 18 46 31 61 13 16 24 37
24 48 0 11 10 23 24 29 13 4 26 20 30 34 3 14 13 26 21 26 8 0 15 4 15 9 0 6
18 31 40 56 22 25 40 52 40 60 0 7 9 17 20 20 11 3 23 17 26 31 9 35 61 34 74
-1z m1820 -377 c26 -19 48 -22 164 -28 124 -6 136 -8 153 -29 15 -18 32 -24
84 -28 54 -5 67 -9 75 -26 5 -13 22 -24 42 -28 18 -4 43 -16 55 -27 12 -11 32
-23 45 -27 13 -4 33 -16 45 -27 48 -43 109 -88 121 -88 6 0 16 -10 21 -22 6
-13 20 -24 32 -26 14 -2 23 -11 25 -25 2 -12 13 -26 26 -32 12 -5 22 -15 22
-21 0 -12 45 -73 88 -121 11 -12 23 -32 27 -45 4 -13 16 -33 27 -45 11 -12 23
-37 27 -55 4 -20 15 -37 28 -42 17 -8 21 -21 26 -75 4 -51 10 -69 27 -83 23
-18 23 -20 34 -210 l4 -78 -609 0 -609 0 -10 25 c-5 14 -16 25 -25 25 -8 0
-21 11 -27 25 -6 13 -20 27 -30 31 -11 3 -23 17 -28 30 -6 14 -18 24 -30 24
-13 0 -20 7 -20 20 0 12 -10 25 -24 31 -13 6 -29 22 -35 35 -6 14 -19 24 -31
24 -13 0 -20 7 -20 20 0 12 -10 25 -24 31 -13 6 -29 22 -35 35 -6 14 -19 24
-31 24 -13 0 -20 7 -20 20 0 12 -10 25 -24 31 -13 6 -29 22 -35 35 -6 14 -19
24 -31 24 -13 0 -20 7 -20 20 0 12 -10 25 -24 31 -13 6 -29 22 -35 35 -6 14
-19 24 -31 24 -13 0 -20 7 -20 20 0 12 -10 24 -24 30 -13 5 -27 18 -31 29 -3
11 -15 23 -26 26 -11 4 -24 18 -29 31 -5 13 -16 24 -25 24 -8 0 -21 11 -27 25
-6 13 -20 27 -30 31 -11 3 -23 17 -28 30 -5 13 -14 24 -20 24 -6 0 10 18 37
39 26 22 58 49 70 60 12 10 32 22 45 26 13 4 33 16 45 27 12 11 37 23 55 27
20 4 37 15 42 28 8 17 21 21 75 26 52 4 69 10 84 28 16 20 29 23 153 29 116 6
140 11 162 28 35 27 66 27 102 0z m-974 -468 c8 0 20 -11 26 -25 6 -13 20 -27
30 -31 11 -3 23 -17 28 -30 5 -13 16 -24 25 -24 8 0 21 -11 27 -25 6 -13 20
-27 30 -31 11 -3 23 -17 28 -30 6 -14 18 -24 30 -24 13 0 20 -7 20 -20 0 -12
10 -25 24 -31 13 -6 29 -22 35 -35 6 -14 19 -24 31 -24 13 0 20 -7 20 -20 0
-12 10 -25 24 -31 13 -6 29 -22 35 -35 6 -14 19 -24 31 -24 13 0 20 -7 20 -20
0 -12 10 -25 24 -31 13 -6 29 -22 35 -35 6 -14 19 -24 31 -24 13 0 20 -7 20
-20 0 -12 10 -25 24 -31 13 -6 29 -22 35 -35 6 -14 19 -24 31 -24 13 0 20 -7
20 -20 0 -12 10 -24 23 -30 13 -5 -184 -9 -515 -9 l-537 -1 9 28 c6 15 14 78
18 140 7 94 12 116 30 132 14 14 22 38 27 84 6 50 11 65 25 69 12 3 23 21 30
48 7 24 20 49 30 56 10 7 21 26 25 42 3 16 15 37 27 47 11 11 26 31 34 46 8
16 21 28 28 28 8 0 17 8 21 18 6 16 7 16 16 0 6 -10 17 -18 25 -18z m904 -905
c5 -14 16 -25 25 -25 8 0 21 -11 27 -25 6 -13 20 -27 30 -31 11 -3 23 -17 28
-30 6 -14 18 -24 29 -24 12 0 21 -9 25 -24 3 -14 15 -28 27 -31 11 -4 24 -18
29 -31 6 -14 18 -24 29 -24 12 0 21 -9 25 -24 3 -14 14 -27 25 -31 10 -3 23
-17 29 -30 7 -15 20 -25 32 -25 13 0 20 -7 20 -20 0 -12 10 -25 24 -31 13 -6
29 -22 35 -35 6 -14 19 -24 31 -24 13 0 20 -7 20 -20 0 -12 10 -25 24 -31 13
-6 29 -22 35 -35 6 -14 19 -24 31 -24 13 0 20 -7 20 -20 0 -12 10 -24 24 -30
13 -5 27 -18 31 -29 3 -12 17 -24 31 -27 15 -4 24 -13 24 -25 0 -11 10 -23 24
-29 13 -5 27 -18 31 -29 3 -11 15 -23 25 -26 11 -3 26 -19 34 -35 14 -29 13
-30 -27 -64 -23 -20 -52 -44 -64 -55 -12 -11 -32 -22 -45 -26 -13 -4 -33 -16
-45 -27 -12 -11 -37 -23 -55 -27 -20 -4 -37 -15 -42 -28 -8 -17 -22 -22 -75
-26 -51 -5 -70 -11 -84 -28 -16 -20 -31 -23 -153 -29 -116 -6 -140 -11 -164
-29 -16 -11 -39 -21 -50 -21 -11 0 -34 10 -50 21 -24 18 -48 23 -164 29 -124
6 -137 9 -153 29 -15 18 -32 24 -84 28 -54 5 -67 9 -75 26 -5 13 -22 24 -42
28 -18 4 -43 16 -55 27 -12 11 -32 23 -45 27 -13 4 -33 16 -45 27 -48 43 -109
88 -121 88 -6 0 -16 10 -21 23 -6 12 -20 23 -32 25 -14 2 -23 11 -25 25 -2 12
-13 26 -25 32 -13 5 -23 15 -23 21 0 12 -45 73 -88 121 -11 12 -23 32 -27 45
-4 13 -16 33 -27 45 -11 12 -23 37 -27 55 -4 20 -15 37 -28 42 -17 8 -21 21
-26 75 -4 52 -10 69 -27 83 -19 15 -23 31 -27 91 -2 39 -5 100 -7 135 l-4 62
609 0 609 0 10 -25z m1280 -2 c-5 -16 -13 -78 -18 -139 -7 -90 -13 -117 -30
-139 -13 -16 -24 -49 -28 -85 -5 -44 -11 -59 -25 -63 -11 -3 -22 -21 -29 -48
-7 -24 -21 -49 -31 -57 -10 -7 -19 -22 -19 -32 0 -11 -13 -35 -30 -53 -16 -19
-30 -39 -30 -45 0 -5 -16 -22 -35 -36 -19 -15 -35 -22 -35 -16 0 6 -11 15 -24
20 -13 5 -27 18 -31 29 -3 11 -15 23 -26 26 -11 4 -24 18 -29 31 -6 14 -18 24
-29 24 -12 0 -21 9 -25 24 -3 14 -15 28 -27 31 -11 4 -24 18 -29 31 -6 14 -18
24 -30 24 -13 0 -20 7 -20 20 0 12 -10 25 -24 31 -13 6 -29 22 -35 35 -6 14
-19 24 -31 24 -13 0 -20 7 -20 20 0 12 -10 25 -24 31 -13 6 -29 22 -35 35 -6
14 -19 24 -31 24 -13 0 -20 7 -20 20 0 12 -10 25 -25 32 -13 6 -27 19 -30 29
-4 11 -17 22 -31 25 -15 4 -24 13 -24 25 0 11 -10 23 -24 29 -13 5 -27 18 -31
29 -3 12 -17 24 -31 27 -15 4 -24 13 -24 25 0 11 -10 24 -22 29 -14 5 183 9
514 9 l537 1 -9 -27z m1199 -5 c-5 -18 -12 -118 -16 -223 -6 -169 -8 -191 -25
-205 -13 -10 -22 -37 -28 -83 -6 -40 -18 -79 -31 -96 -12 -17 -22 -50 -26 -87
-4 -35 -14 -70 -26 -85 -10 -15 -23 -48 -28 -74 -5 -29 -17 -54 -29 -62 -10
-7 -22 -30 -26 -51 -4 -20 -17 -44 -29 -54 -13 -10 -26 -34 -29 -53 -4 -20
-13 -38 -21 -41 -8 -3 -19 -22 -26 -42 -7 -21 -22 -50 -35 -65 -13 -16 -24
-38 -24 -49 0 -11 -8 -22 -20 -25 -10 -3 -22 -13 -25 -23 -3 -10 -18 -31 -33
-47 -59 -64 -83 -95 -92 -118 -5 -14 -16 -25 -25 -25 -8 0 -17 -11 -21 -25 -9
-36 -60 -36 -74 0 -5 14 -16 25 -25 25 -8 0 -21 11 -27 25 -6 13 -20 27 -30
31 -11 3 -23 17 -28 30 -6 14 -18 24 -30 24 -13 0 -20 7 -20 20 0 12 -10 25
-24 31 -13 6 -29 22 -35 35 -6 14 -19 24 -31 24 -13 0 -20 7 -20 20 0 12 -10
25 -24 31 -13 6 -29 22 -35 35 -6 14 -19 24 -31 24 -13 0 -20 7 -20 20 0 12
-10 25 -24 31 -13 6 -29 22 -35 35 -6 14 -19 24 -31 24 -13 0 -20 7 -20 20 0
12 -10 25 -24 31 -13 6 -29 22 -35 35 -6 14 -19 24 -31 24 -14 0 -20 7 -20 21
0 13 -8 23 -21 26 -29 8 -48 60 -35 95 6 16 18 31 28 34 10 3 21 16 24 29 3
13 14 27 25 30 11 4 24 23 31 46 6 22 19 46 29 53 10 6 21 25 25 41 4 17 18
43 31 58 12 16 23 38 23 50 0 12 11 39 25 60 19 26 28 56 32 104 5 51 11 72
27 84 19 15 21 30 24 138 l4 121 513 0 514 0 -10 -32z"/>
</g>
</svg>
