<svg xmlns="http://www.w3.org/2000/svg" width="50" height="50" fill="none" viewBox="0 0 50 50"><g clip-path="url(#clip0_1_183)"><path fill="#42A5F5" fill-opacity=".8" d="M12.6995 32.6974L5 24.998L30 0H45.3969L12.6995 32.6974ZM45.3969 23.0681H30L24.2325 28.8356L31.9319 36.535"/><path fill="#0D47A1" d="M24.2325 44.2325L30 50H45.397L31.932 36.535"/><path fill="#42A5F5" d="M16.5512 36.5391L24.2385 28.8497L31.9259 36.5371L24.2385 44.2264L16.5512 36.5391Z"/><path fill="url(#paint0_linear_1_183)" d="M24.2385 44.2264L31.9259 36.5391L32.9989 37.6122L25.3116 45.2995L24.2385 44.2264Z"/><path fill="url(#paint1_linear_1_183)" d="M24.2325 44.2325L35.6564 40.2857L31.9319 36.533"/></g><defs><linearGradient id="paint0_linear_1_183" x1="28.084" x2="29.157" y1="40.381" y2="41.455" gradientUnits="userSpaceOnUse"><stop offset=".2" stop-opacity=".15"/><stop offset=".85" stop-color="#616161" stop-opacity=".01"/></linearGradient><linearGradient id="paint1_linear_1_183" x1="24.235" x2="35.659" y1="40.383" y2="40.383" gradientUnits="userSpaceOnUse"><stop offset=".2" stop-opacity=".55"/><stop offset=".85" stop-color="#616161" stop-opacity=".01"/></linearGradient><clipPath id="clip0_1_183"><rect width="40.397" height="50" fill="#fff" transform="translate(5)"/></clipPath></defs></svg>