<svg xmlns="http://www.w3.org/2000/svg" width="50" height="50" fill="none" viewBox="0 0 50 50"><g clip-path="url(#clip0_1_204)"><path fill="url(#paint0_linear_1_204)" d="M11.1133 0H38.8087C40.1564 0 41.465 0.214844 42.7345 0.664063C44.5705 1.32813 46.2306 2.5 47.4806 4.02344C48.7502 5.54688 49.59 7.42188 49.883 9.375C50.0002 10.0977 50.0197 10.8203 50.0197 11.543V38.5547C50.0197 39.4141 49.9806 40.293 49.8048 41.1328C49.4142 43.0664 48.4962 44.8828 47.1681 46.3477C45.8595 47.8125 44.1408 48.9062 42.2853 49.4922C41.1525 49.8437 39.9806 50 38.7892 50C38.2618 50 11.0352 50 10.625 49.9805C8.63284 49.8828 6.66018 49.2383 5.00002 48.125C3.37892 47.0312 2.05079 45.5078 1.19141 43.75C0.449222 42.2461 0.0781275 40.5664 0.0781275 38.8867V11.1133C0.0390648 9.45313 0.390628 7.8125 1.11329 6.32813C1.95313 4.57031 3.26173 3.02734 4.88283 1.93359C6.54299 0.800781 8.49612 0.136719 10.4883 0.0390625C10.6836 0 10.8985 0 11.1133 0V0Z"/><path fill="url(#paint1_linear_1_204)" d="M42.1875 40.8984C42.0117 40.625 41.8164 40.3516 41.6016 40.0977C41.1133 39.5117 40.5469 39.0039 39.9219 38.5742C39.1406 38.0469 38.2227 37.7148 37.2852 37.6758C36.6211 37.6367 35.957 37.7539 35.332 37.9883C34.707 38.2031 34.1016 38.5156 33.5156 38.8281C32.832 39.1797 32.1484 39.5312 31.4258 39.8242C30.5664 40.1758 29.668 40.4492 28.75 40.6445C27.5977 40.8594 26.4258 40.9375 25.2734 40.918C23.1836 40.8789 21.0938 40.5664 19.1016 39.9805C17.3438 39.4531 15.6641 38.7305 14.082 37.8125C12.6953 37.0117 11.4063 36.0938 10.1953 35.0586C9.19922 34.1992 8.28125 33.2812 7.42188 32.3047C6.83594 31.6211 6.26953 30.8984 5.74219 30.1562C5.52734 29.8633 5.33203 29.5508 5.15625 29.2383L0 23.6719V11.0742C0 4.96094 4.94141 0 11.0547 0H20.918L28.2227 7.42188C44.707 18.6328 39.375 30.9961 39.375 30.9961C39.375 30.9961 44.0625 36.2695 42.1875 40.8984V40.8984Z"/><path fill="#fff" d="M28.2616 7.42188C44.7459 18.6328 39.4139 30.9961 39.4139 30.9961C39.4139 30.9961 44.1014 36.2891 42.2069 40.918C42.2069 40.918 40.2733 37.6758 37.0311 37.6758C33.9061 37.6758 32.0702 40.918 25.7812 40.918C11.7773 40.918 5.15625 29.2188 5.15625 29.2188C17.7734 37.5195 26.3866 31.6406 26.3866 31.6406C20.7031 28.3398 8.61327 12.5586 8.61327 12.5586C19.1406 21.5234 23.6913 23.8867 23.6913 23.8867C20.9765 21.6406 13.3593 10.6641 13.3593 10.6641C19.4531 16.8359 31.5624 25.4492 31.5624 25.4492C34.9999 15.918 28.2616 7.42188 28.2616 7.42188Z"/></g><defs><linearGradient id="paint0_linear_1_204" x1="29.744" x2="20.298" y1="-1.784" y2="51.79" gradientUnits="userSpaceOnUse"><stop stop-color="#FAAE42"/><stop offset="1" stop-color="#EF3E31"/></linearGradient><linearGradient id="paint1_linear_1_204" x1="25.51" x2="18.596" y1=".808" y2="40.018" gradientUnits="userSpaceOnUse"><stop stop-color="#E39F3A"/><stop offset="1" stop-color="#D33929"/></linearGradient><clipPath id="clip0_1_204"><rect width="50" height="50" fill="#fff"/></clipPath></defs></svg>