<svg xmlns="http://www.w3.org/2000/svg" width="50" height="50" fill="none" viewBox="0 0 50 50"><g clip-path="url(#clip0_1_83)"><path fill="#2E001E" d="M2.08334 2.14143H47.9166V47.8584H2.08334V2.14143Z"/><path fill="#FF2BC2" d="M-3.8147e-05 0.005126V49.9948H49.9999V0.005126H-3.8147e-05ZM2.08329 2.14144H47.9166V47.8585H2.08329V2.14144Z"/><path fill="#FF2BC2" d="M36.3125 21.005C36 20.8555 35.6041 20.7914 35.1041 20.7914C32.4791 20.7914 30.7291 22.8636 30.7291 26.3031C30.7291 30.2339 32.5208 31.8147 34.8541 31.8147C35.3541 31.8147 35.8958 31.7507 36.2916 31.5797V21.005H36.3125ZM26.9792 26.474C26.9792 21.4964 30.1042 17.6083 35.2291 17.6083C35.6666 17.6083 35.8958 17.6083 36.3125 17.6511V12.0967C36.3125 11.9685 36.4166 11.883 36.5208 11.883H39.875C40.0416 11.883 40.0833 11.9471 40.0833 12.0539V31.5797C40.0833 32.1565 40.0833 32.8829 40.1875 33.6733C40.1875 33.8229 40.1875 33.8442 40.0625 33.9083C38.3125 34.7628 36.4791 35.1474 34.7291 35.1474C30.2083 35.1474 26.9792 32.2847 26.9792 26.474V26.474ZM19.875 23.0132L25.7083 34.6133C25.8125 34.7842 25.75 34.9551 25.5833 34.9551H21.9583C21.7292 34.9551 21.625 34.891 21.5208 34.6774C20.1875 31.8575 18.8333 28.9307 17.4375 25.8972H17.3958C16.1458 28.7598 14.7708 31.8788 13.4375 34.6987C13.3333 34.8697 13.2292 34.9337 13.0625 34.9337H9.60417C9.39584 34.9337 9.375 34.7628 9.47917 34.6347L15.1875 23.3763L9.66667 12.1821C9.54167 12.0112 9.66667 11.8617 9.8125 11.8617H13.3958C13.6042 11.8617 13.7083 11.9044 13.7708 12.0967C15.0833 14.9379 16.4167 17.7365 17.6667 20.5991H17.7083C18.9167 17.7792 20.25 14.9379 21.5208 12.1394C21.625 11.9685 21.6875 11.8617 21.8958 11.8617H25.25C25.4167 11.8617 25.4792 11.9898 25.375 12.1821L19.875 23.0132V23.0132Z"/></g><defs><clipPath id="clip0_1_83"><rect width="50" height="50" fill="#fff"/></clipPath></defs></svg>